<?xml version="1.0" encoding="utf-8"?>
<!-- Generator: Adobe Illustrator 14.0.0, SVG Export Plug-In . SVG Version: 6.00 Build 43363)  -->
<!DOCTYPE svg PUBLIC "-//W3C//DTD SVG 1.1//EN" "http://www.w3.org/Graphics/SVG/1.1/DTD/svg11.dtd">
<svg version="1.1" id="Layer_4" xmlns="http://www.w3.org/2000/svg" xmlns:xlink="http://www.w3.org/1999/xlink" x="0px" y="0px"
	 width="34px" height="34px" viewBox="0 0 34 34" enable-background="new 0 0 34 34" xml:space="preserve">
<g>
	<path fill="#FFFFFF" d="M29.656,11.947l-2.227-0.001l-2.398,1.204c0.002,0.057,0.009,0.113,0.009,0.17
		c0,2.151-0.994,4.072-2.546,5.333l0.499,1.067l-2.108,1.464v3.557l1.363,1.013l0.512,2.216h-1.284l0.078,0.225l-0.901,1.803
		l-4.01,1.544l-4.289-1.685l-3.52-8.023l0.802-0.352l0.802-0.352l3.229,7.359l2.981,1.171l2.739-1.054l0.267-0.533l-0.036-0.104
		l-0.858-2.456l-1.904-5.446l-0.41-1.173l-0.427-1.223l-0.04-0.114l-0.251-0.72l-0.029-0.084l-0.813-0.473l-0.699-0.407
		l-0.047,0.021l-0.972,0.421l-0.963,0.417l-0.334,0.145l-0.805,0.349l-0.805,0.349l-1.508,0.653l-0.348-0.804l-0.348-0.804
		l1.417-0.614L8.13,13.332l-4.095,7.18v9.594l1.207,1.206h8.405l0.924,0.926h11.978l0.94-0.94v-3.921h-1.511V26.5v-0.876h3.336
		v-5.677H25.75v-0.818v-0.818h3.872l0.422-0.423v-5.554L29.656,11.947z"/>
	<path fill="#FFFFFF" d="M8.952,11.062l0.439,0.876l1.691,3.37l0.452-0.196c-0.155-0.573-0.246-1.172-0.246-1.793
		c0-0.473,0.048-0.934,0.139-1.38c0.062-0.301,0.149-0.591,0.249-0.876c0.105-0.302,0.229-0.595,0.374-0.876
		c1.142-2.218,3.45-3.742,6.111-3.742c2.665,0,4.976,1.526,6.116,3.747c0.145,0.281,0.27,0.574,0.374,0.876
		c0.031,0.088,0.064,0.174,0.091,0.264l0.526-0.264l0.382-0.191l-0.344-0.685l-3.779-7.531L8.114,9.394l0.398,0.793L8.952,11.062z"
		/>
	<path fill="#FFFFFF" d="M19.409,20.076c-0.02,0.004-0.039,0.006-0.058,0.009l0.006,0.027L19.409,20.076z"/>
	<polygon fill="#FFFFFF" points="19.833,13.436 18.768,13.436 18.768,14.333 18.768,14.502 19.833,14.502 19.833,13.798 	"/>
	<polygon fill="#FFFFFF" points="16.645,11.313 16.645,11.942 16.645,12.379 17.701,12.379 17.701,11.942 17.701,11.313 	"/>
	<path fill="#FFFFFF" d="M22.861,14.238c0.058-0.298,0.093-0.604,0.093-0.918c0-0.035-0.01-0.068-0.011-0.103
		c-0.007-0.317-0.041-0.627-0.107-0.926c-0.026-0.12-0.072-0.23-0.107-0.346c-0.093-0.307-0.214-0.599-0.363-0.876
		c-0.17-0.315-0.371-0.608-0.604-0.876c-0.879-1.008-2.157-1.66-3.598-1.66c-1.438,0-2.715,0.65-3.593,1.657
		c-0.234,0.268-0.435,0.561-0.604,0.876c-0.15,0.278-0.271,0.569-0.364,0.876c-0.133,0.439-0.227,0.896-0.227,1.379
		c0,0.327,0.034,0.646,0.096,0.954l0.831-0.36l1.276,0.743v-0.155h2.123v-1.066h-2.123v-1.057h-1.066v-0.438v-0.628h1.066v-0.248
		v-0.818h2.123V10.19V9.181h1.066v1.009v0.057h2.132v0.82v0.246h-2.132v0.63v0.436h2.132v0.884v0.173h1.065v0.272v0.794h-1.065
		v0.721v0.345h-0.688h-1.444v0.725v0.341h-0.68h-0.387v-0.786v-0.28h-0.561l0.167,0.478l0.292,0.833l0.366,1.048l0.059,0.169
		c0.048,0.001,0.092,0.014,0.14,0.014c0.708,0,1.374-0.164,1.979-0.44C21.527,17.036,22.562,15.771,22.861,14.238z"/>
</g>
<path d="M30.383,10.195l-3.113-0.001L22.311,0.31L5.762,8.613l1.424,2.837l-4.903,8.596v10.785l2.233,2.231h8.404l0.924,0.926
	h13.431l1.966-1.966v-3.989h0.305l1.521-1.519v-7.172l0.729-0.731v-7.004L30.383,10.195z M21.529,2.662l3.779,7.531l0.344,0.685
	l-0.382,0.191l-0.526,0.264c-0.026-0.09-0.06-0.176-0.091-0.264c-0.104-0.302-0.229-0.595-0.374-0.876
	c-1.141-2.221-3.451-3.747-6.116-3.747c-2.662,0-4.97,1.524-6.111,3.742c-0.145,0.281-0.269,0.574-0.374,0.876
	c-0.1,0.285-0.188,0.575-0.249,0.876c-0.091,0.446-0.139,0.907-0.139,1.38c0,0.621,0.09,1.221,0.246,1.793l-0.452,0.196l-1.691-3.37
	l-0.439-0.876l-0.44-0.876L8.114,9.394L21.529,2.662z M18.163,18.109c-0.048,0-0.092-0.013-0.14-0.014l-0.883-2.528h0.561v1.066
	h1.066v-1.066h1.444h0.688v-0.345v-0.721h1.065v-0.794v-0.272h-1.065v-0.173v-0.884h-2.132v-0.436v-0.63h2.132v-0.246v-0.82h-2.132
	V10.19V9.181h-1.066v1.009v0.057h-2.123v0.818v0.248h-1.066v0.628v0.438h1.066v1.057h2.123v1.066h-2.123v0.155l-1.276-0.743
	l-0.831,0.36c-0.062-0.309-0.096-0.627-0.096-0.954c0-0.482,0.093-0.939,0.227-1.379c0.093-0.307,0.214-0.599,0.364-0.876
	c0.17-0.315,0.371-0.608,0.604-0.876c0.878-1.007,2.155-1.657,3.593-1.657c1.44,0,2.719,0.652,3.598,1.66
	c0.233,0.268,0.435,0.561,0.604,0.876c0.149,0.278,0.271,0.569,0.363,0.876c0.035,0.116,0.081,0.227,0.107,0.346
	c0.066,0.299,0.101,0.609,0.107,0.926c0.001,0.035,0.011,0.068,0.011,0.103c0,0.314-0.035,0.621-0.093,0.918
	c-0.3,1.533-1.334,2.798-2.719,3.431C19.537,17.945,18.871,18.109,18.163,18.109z M17.701,12.379h-1.057v-0.437v-0.629h1.057v0.629
	V12.379z M18.768,14.502v-0.169v-0.896h1.065v0.362v0.704H18.768z M30.044,17.888l-0.422,0.423H25.75v1.637h3.564v5.677h-3.336
	v1.752h1.511v3.921l-0.94,0.94H14.571l-0.924-0.926H5.242l-1.207-1.206v-9.594l4.095-7.18l1.343,2.675l-1.417,0.614l0.696,1.607
	l5.434-2.354l1.513,0.88l3.957,11.319l-0.267,0.533l-2.739,1.054l-2.981-1.171l-3.229-7.359l-1.604,0.703l3.52,8.023l4.289,1.685
	l4.01-1.544l0.901-1.803l-0.078-0.225h1.284l-0.512-2.216l-1.363-1.013v-3.557l2.108-1.464l-0.499-1.067
	c1.552-1.261,2.546-3.183,2.546-5.333c0-0.058-0.007-0.113-0.009-0.17l2.398-1.204l2.227,0.001l0.388,0.387V17.888z"/>
</svg>
