<?xml version="1.0" encoding="UTF-8" standalone="no"?>
<svg
   width="32"
   height="37"
   viewBox="0 0 32 37"
   fill="none"
   version="1.1"
   id="svg4"
   sodipodi:docname="farm_sidebar.svg"
   inkscape:version="1.1 (c68e22c387, 2021-05-23)"
   xmlns:inkscape="http://www.inkscape.org/namespaces/inkscape"
   xmlns:sodipodi="http://sodipodi.sourceforge.net/DTD/sodipodi-0.dtd"
   xmlns="http://www.w3.org/2000/svg"
   xmlns:svg="http://www.w3.org/2000/svg">
  <defs
     id="defs8" />
  <sodipodi:namedview
     id="namedview6"
     pagecolor="#ffffff"
     bordercolor="#666666"
     borderopacity="1.0"
     inkscape:pageshadow="2"
     inkscape:pageopacity="0.0"
     inkscape:pagecheckerboard="0"
     showgrid="false"
     inkscape:zoom="17.621622"
     inkscape:cx="15.974693"
     inkscape:cy="9.4486196"
     inkscape:window-width="1600"
     inkscape:window-height="837"
     inkscape:window-x="-8"
     inkscape:window-y="-8"
     inkscape:window-maximized="1"
     inkscape:current-layer="svg4" />
  <path
     d="m 18.989506,14.458945 c 1.6495,-1.6495 4.3711,-1.8145 5.6082,-1.8969 0,1.3195 -0.3299,3.9587 -2.0618,5.6082 -1.6495,1.6495 -4.3711,1.8144 -5.6907,1.8969 0.1649,-1.2371 0.4948,-3.9588 2.1443,-5.6082 z m -12.2061899,17.2371 c -2.63918,-2.5567 -2.96907,-6.7629 -2.96907,-8.4124 1.64948,0 5.9381399,0.1649 8.4948599,2.7217 2.6392,2.5567 2.9691,6.7628 2.9691,8.4123 -1.6495,0.0825 -5.85571,-0.1649 -8.4948899,-2.7216 z m 8.4948899,-11.4639 c -1.3196,-0.0825 -3.9588,-0.3299 -5.60829,-2.0619 -1.6494899,-1.6495 -1.8144399,-4.3711 -1.8969099,-5.6082 1.3195899,0 3.9587999,0.3299 5.6081999,2.0618 1.4021,1.4845 1.8145,3.7113 1.8145,5.1134 v 0.4949 z m -0.9897,-14.1856096 c 0,-1.64948 1.0721,-3.13402 1.7319,-3.87629 0.7423,0.74227 1.8145,2.22681 1.8145,3.79382 0,1.64948 -1.0722,3.13402 -1.8145,3.87628 -0.5773,-0.74226 -1.7319,-2.2268 -1.7319,-3.79381 z m 2.6391,28.3711096 c 0,-1.6495 0.3299,-5.8556 2.9691,-8.4123 2.6392,-2.5568 6.8454,-2.7217 8.4949,-2.7217 0,1.732 -0.3299,5.9381 -2.9691,8.4124 -2.5567,2.5567 -6.7629,2.8041 -8.4949,2.7216 z m -17.1545999,2.5567 H 31.773006 v -1.6495 h -9.3196 c 1.4845,-0.4948 2.9691,-1.2371 4.2062,-2.3917 3.8763,-3.7114 3.4639,-10.1443 3.4639,-10.4742 0,-0.4124 -0.3299,-0.7423 -0.7423,-0.7423 -0.2474,0 -6.6804,-0.5773 -10.5567,3.134 -0.7422,0.7423 -1.3195,1.567 -1.8144,2.4742 v -5.6082 c 1.4845,0 4.701,-0.2474 6.8454,-2.3093 2.8041,-2.7216 2.5567,-7.4227 2.5567,-7.5876 0,-0.4124 -0.3299,-0.7423 -0.7423,-0.7423 -0.1649,0 -4.866,-0.4124 -7.6701,2.3093 -0.3299,0.3299 -0.6598,0.7423 -0.9072,1.0722 v -3.0516 c 0.6598,-0.6598 2.6392,-2.8041096 2.6392,-5.4432796 0,-3.13402 -2.8866,-5.525779 -2.9691,-5.608253 -0.3299,-0.2474227 -0.7423,-0.2474227 -1.0722,0 -0.0824,0.082474 -2.8866,2.556703 -2.8866,5.690723 0,2.47423 1.8145,4.5361096 2.6392,5.2783096 v 2.8866 c -0.1649,-0.2474 -0.4124,-0.5773 -0.6598,-0.8247 -2.7216,-2.8041 -7.4226699,-2.5567 -7.5876199,-2.5567 -0.41237,0 -0.74227,0.3299 -0.74227,0.7423 0,0.1649 -0.41237,4.8659 2.3092799,7.6701 2.06181,2.1443 5.27831,2.4742 6.76291,2.5567 v 5.4433 c -0.4949,-0.9073 -1.0722,-1.732 -1.8145,-2.4743 -3.8762,-3.7113 -10.3092299,-3.134 -10.5566599,-3.134 -0.41237,0.0825 -0.74226,0.3299 -0.74226,0.7423 0,0.2474 -0.41238,6.7629 3.46391,10.4742 1.23712,1.1547 2.7216499,1.8969 4.2062099,2.3918 H -0.2269939 Z"
     fill="#66666b"
     id="path2" />
  <path
     style="fill:#00ff00;stroke:#00c800;stroke-width:0.889894"
     id="path943"
     d="m 22.598675,25.46273 c -0.582597,0.602811 -1.123531,1.269498 -1.638687,1.962692 -0.197611,0.265906 -0.387937,0.540298 -0.581906,0.810447 -0.716756,1.041703 -1.403919,2.119504 -2.002312,3.275765 -0.263396,0.508952 -0.368714,0.755243 -0.601522,1.26617 -0.249476,0.552406 -0.462795,1.129249 -0.619055,1.733803 -0.03279,0.163764 -0.09483,0.313253 -0.153331,0.463802 -0.07465,0.191902 -0.289561,0.0586 -0.214918,-0.133299 v 0 c 0.05372,-0.137947 0.111862,-0.273645 0.140662,-0.424465 0.161859,-0.624119 0.381129,-1.220347 0.639118,-1.790669 0.237051,-0.519938 0.342953,-0.767638 0.611293,-1.285823 0.604663,-1.167647 1.298553,-2.256426 2.022694,-3.308397 0.195948,-0.272808 0.388222,-0.549898 0.587845,-0.818423 0.515795,-0.693825 1.056795,-1.363055 1.640808,-1.965404 0.119721,-0.15118 0.289032,0.06262 0.169311,0.213801 z" />
  <path
     style="fill:#00ff00;stroke:#00c800"
     id="path943-8"
     d="m 8.404355,25.368768 c 0.735684,0.602811 1.418758,1.269498 2.06928,1.962692 0.249537,0.265906 0.489875,0.540298 0.734812,0.810447 0.905097,1.041703 1.772823,2.119504 2.528455,3.275765 0.332607,0.508952 0.4656,0.755243 0.759582,1.26617 0.31503,0.552406 0.584403,1.129249 0.781722,1.733803 0.0414,0.163764 0.119755,0.313253 0.193622,0.463802 0.09426,0.191902 0.365648,0.0586 0.271391,-0.133299 v 0 c -0.06783,-0.137947 -0.141255,-0.273645 -0.177623,-0.424465 -0.20439,-0.624119 -0.481277,-1.220347 -0.807057,-1.790669 -0.299341,-0.519938 -0.43307,-0.767638 -0.771921,-1.285823 -0.763549,-1.167647 -1.639771,-2.256426 -2.554192,-3.308397 -0.247437,-0.272808 -0.490234,-0.549898 -0.742312,-0.818423 -0.651329,-0.693825 -1.334486,-1.363055 -2.071959,-1.965404 -0.15118,-0.15118 -0.36498,0.06262 -0.2138,0.213801 z" />
  <path
     style="fill:#00ff00;stroke:#00c800"
     id="path945"
     d="m 23.37208,24.612626 c 1.430627,0.03153 2.864808,-0.01101 4.291882,0.09458 0.07709,0.0057 -0.04871,0.147174 -0.08212,0.216889 -0.06751,0.140885 -0.142148,0.278384 -0.220074,0.413784 -0.401233,0.697164 -0.858612,1.358704 -1.312643,2.021789 -0.735155,1.04723 -1.496405,2.076215 -2.214904,3.135049 -0.495522,0.719513 -0.943293,1.470664 -1.433881,2.193325 -0.155734,0.229403 -0.50617,0.715361 -0.676175,0.952445 -0.354021,0.475094 -0.653563,0.987883 -1.004926,1.464519 -0.02699,0.03269 -0.05398,0.06538 -0.08097,0.09806 -0.13585,0.165092 0.09763,0.357213 0.233477,0.192121 v 0 c 0.03031,-0.03695 0.06063,-0.07391 0.09094,-0.110865 0.351786,-0.477955 0.653142,-0.990974 1.007198,-1.467645 0.176085,-0.245575 0.521699,-0.724747 0.683193,-0.96267 0.489686,-0.721437 0.936749,-1.47123 1.431349,-2.189532 0.718132,-1.058568 1.47953,-2.08694 2.214187,-3.133998 0.460286,-0.672367 0.926158,-1.342995 1.330521,-2.051403 0.08416,-0.14744 0.165477,-0.29686 0.236626,-0.451 0.04008,-0.08682 0.0011,-0.26131 0.09629,-0.270241 1.438699,-0.134957 2.888407,-0.09681 4.332611,-0.145211 0,-6.30922 -8.922584,-6.30922 -8.922584,0 z" />
  <path
     style="fill:#00ff00;stroke:#00c800;stroke-width:0.552099"
     id="path945-2"
     d="m 17.429826,8.255635 c -0.379837,0.036198 -0.760618,-0.01264 -1.13951,0.1085831 -0.02047,0.00654 0.01293,0.1689642 0.0218,0.249001 0.01793,0.161744 0.03774,0.3196007 0.05843,0.4750476 0.106528,0.8003841 0.227964,1.5598703 0.348511,2.3211293 0.195186,1.202279 0.397301,2.383613 0.588065,3.599214 0.131562,0.826043 0.250447,1.688407 0.380701,2.518063 0.04135,0.263368 0.134389,0.821275 0.179526,1.093462 0.09399,0.545434 0.173523,1.134145 0.266811,1.681351 0.0072,0.03753 0.01433,0.07506 0.0215,0.112578 0.03607,0.189536 -0.02592,0.410101 -0.06199,0.220566 v 0 c -0.008,-0.04242 -0.0161,-0.08485 -0.02415,-0.127279 -0.0934,-0.54872 -0.173408,-1.137695 -0.267412,-1.684941 -0.04675,-0.281933 -0.138513,-0.832051 -0.18139,-1.105199 -0.130013,-0.828252 -0.24871,-1.689056 -0.380028,-2.513709 -0.190667,-1.215296 -0.39282,-2.395926 -0.587875,-3.598008 -0.122207,-0.771915 -0.245898,-1.541835 -0.353258,-2.3551273 -0.02235,-0.1692696 -0.04394,-0.3408123 -0.06282,-0.5177738 -0.01064,-0.099674 -2.93e-4,-0.2999988 -0.02556,-0.3102521 -0.38198,-0.1549383 -0.766882,-0.1111433 -1.150323,-0.1667104 0,-7.2433446 2.368977,-7.2433446 2.368977,0 z" />
  <path
     style="fill:#00ff00;stroke:#00c800;stroke-width:0.691991"
     id="path945-8"
     d="m 18.474831,12.562042 c 0.981726,0.022 1.965892,-0.0077 2.94518,0.066 0.0529,0.004 -0.03343,0.102699 -0.05635,0.151347 -0.04633,0.09831 -0.09755,0.194259 -0.15102,0.288743 -0.275335,0.486488 -0.589197,0.948118 -0.900764,1.410826 -0.504477,0.730768 -1.026864,1.448805 -1.519913,2.18767 -0.340037,0.502084 -0.647307,1.026245 -0.983959,1.530525 -0.106868,0.16008 -0.347344,0.499187 -0.464005,0.664627 -0.242937,0.331525 -0.448489,0.689355 -0.689601,1.021956 -0.01852,0.02281 -0.03704,0.04562 -0.05556,0.06843 -0.09322,0.115203 0.06699,0.249267 0.160216,0.134064 v 0 c 0.0208,-0.02578 0.04161,-0.05157 0.06241,-0.07736 0.241403,-0.333522 0.4482,-0.691512 0.69116,-1.024138 0.120834,-0.171365 0.358001,-0.505736 0.468822,-0.671761 0.336032,-0.503427 0.642816,-1.02664 0.982221,-1.527879 0.492797,-0.73868 1.015285,-1.456289 1.519421,-2.186937 0.315858,-0.469185 0.635549,-0.937156 0.913031,-1.431491 0.05775,-0.102885 0.113555,-0.207152 0.162378,-0.314712 0.0275,-0.06058 7.55e-4,-0.182345 0.06608,-0.188577 0.987265,-0.09417 1.982086,-0.06756 2.973129,-0.10133 0,-4.4026402 -6.122864,-4.4026402 -6.122864,0 z" />
  <path
     style="fill:#00ff00;stroke:#00c800;stroke-width:0.964511"
     id="path945-1"
     d="m 8.9583002,23.147085 c -1.2426457,0.03377 -2.4883783,-0.01179 -3.7279375,0.101296 -0.066961,0.0061 0.04231,0.157625 0.071329,0.232291 0.05864,0.150889 0.1234701,0.298152 0.1911568,0.443167 0.3485115,0.746671 0.7457919,1.455188 1.1401642,2.165359 0.6385572,1.121596 1.2997805,2.223651 1.9238703,3.357674 0.4304114,0.770606 0.8193462,1.575098 1.2454717,2.349076 0.1352719,0.245693 0.4396613,0.76616 0.5873283,1.02008 0.307504,0.508831 0.567686,1.058034 0.87288,1.568516 0.02344,0.03501 0.04689,0.07002 0.07033,0.105023 0.118,0.176816 -0.0848,0.38258 -0.202798,0.205764 v 0 c -0.02633,-0.03957 -0.05267,-0.07916 -0.07899,-0.118737 -0.305561,-0.511896 -0.56732,-1.061345 -0.874854,-1.571865 C 10.023303,32.741715 9.7231017,32.228517 9.5828277,31.973698 9.1574854,31.201031 8.7691656,30.397994 8.3395549,29.628685 7.7157839,28.494946 7.0544321,27.393548 6.4163074,26.272137 6.0165021,25.552024 5.611845,24.833774 5.2606144,24.075061 5.187513,23.917151 5.1168808,23.75712 5.0550806,23.592035 c -0.034814,-0.09299 -9.555e-4,-0.279866 -0.083638,-0.289432 -1.249657,-0.14454 -2.5088764,-0.103684 -3.7633151,-0.155522 0,-6.757247 7.7501749,-6.757247 7.7501749,0 z" />
  <path
     style="fill:#00ff00;stroke:#00c800;stroke-width:0.687235"
     id="path945-1-8"
     d="m 13.679716,12.562048 c -0.947069,0.02249 -1.89649,-0.0079 -2.841207,0.06748 -0.05103,0.0041 0.03225,0.105 0.05436,0.154737 0.04469,0.100513 0.0941,0.19861 0.145688,0.295209 0.265615,0.497383 0.568397,0.969351 0.868964,1.44242 0.48667,0.747134 0.990614,1.481251 1.466257,2.236662 0.328033,0.513328 0.624456,1.049227 0.949222,1.564801 0.103096,0.163664 0.335084,0.510365 0.447627,0.67951 0.23436,0.33895 0.432655,0.704793 0.665256,1.044842 0.01786,0.02332 0.03574,0.04664 0.0536,0.06996 0.08993,0.117783 -0.06463,0.25485 -0.15456,0.137066 v 0 c -0.02007,-0.02636 -0.04014,-0.05273 -0.0602,-0.07909 -0.23288,-0.340992 -0.432377,-0.706999 -0.66676,-1.047074 -0.116568,-0.175202 -0.345363,-0.517061 -0.452271,-0.686805 -0.324171,-0.5147 -0.620125,-1.049631 -0.947547,-1.562094 -0.4754,-0.755222 -0.979443,-1.488901 -1.465783,-2.235912 -0.304707,-0.479692 -0.613112,-0.958143 -0.880798,-1.463548 -0.05571,-0.105189 -0.109545,-0.211791 -0.156646,-0.32176 -0.02653,-0.06194 -7.28e-4,-0.186428 -0.06374,-0.1928 -0.9524128,-0.09628 -1.9121131,-0.06907 -2.8681699,-0.103599 0,-4.5012345 5.9067109,-4.5012345 5.9067109,0 z" />
</svg>
