<?xml version="1.0" encoding="UTF-8" standalone="no"?>
<svg
   width="32"
   height="31"
   viewBox="0 0 32 31"
   fill="none"
   version="1.1"
   id="svg4"
   sodipodi:docname="home_sidebar.svg"
   inkscape:version="1.1 (c68e22c387, 2021-05-23)"
   xmlns:inkscape="http://www.inkscape.org/namespaces/inkscape"
   xmlns:sodipodi="http://sodipodi.sourceforge.net/DTD/sodipodi-0.dtd"
   xmlns="http://www.w3.org/2000/svg"
   xmlns:svg="http://www.w3.org/2000/svg">
  <defs
     id="defs8" />
  <sodipodi:namedview
     id="namedview6"
     pagecolor="#ffffff"
     bordercolor="#666666"
     borderopacity="1.0"
     inkscape:pageshadow="2"
     inkscape:pageopacity="0.0"
     inkscape:pagecheckerboard="0"
     showgrid="false"
     inkscape:zoom="21.032258"
     inkscape:cx="15.999233"
     inkscape:cy="15.523773"
     inkscape:window-width="1600"
     inkscape:window-height="837"
     inkscape:window-x="-8"
     inkscape:window-y="-8"
     inkscape:window-maximized="1"
     inkscape:current-layer="svg4" />
  <path
     d="M0.571739 15.7671C0.48874 15.6841 0.476861 15.528 0.54195 15.4353L0.571732 15.4055L0.571739 15.4055L15.0758 0.901373L15.0824 0.894828L15.0887 0.888045C15.5542 0.386712 16.3523 0.383294 16.8193 0.807326L16.8624 0.850481L16.8624 0.850491L31.4174 15.4055C31.5275 15.5156 31.5275 15.657 31.4174 15.7671C31.3344 15.8501 31.1783 15.862 31.0856 15.7969L31.0558 15.7671L29.3255 14.0368L28.4719 13.1832V14.3903V29.6069C28.4719 29.8906 28.2378 30.1248 27.9541 30.1248H3.52614C3.24247 30.1248 3.00831 29.8906 3.00831 29.6069V14.8993V13.6921L2.15475 14.5457L0.933356 15.7671C0.823269 15.8772 0.681826 15.8772 0.571739 15.7671ZM15.6183 1.11844L15.5457 1.15472L15.4884 1.2121L3.6815 13.019L3.53506 13.1654V13.3725V29.098V29.598H4.03506H11.1599H11.6599V29.098V18.9197C11.6599 18.636 11.894 18.4019 12.1777 18.4019H19.8115C20.0951 18.4019 20.3293 18.636 20.3293 18.9197V29.098V29.598H20.8293H27.4452H27.9452V29.098V12.8636V12.6565L27.7988 12.51L16.5517 1.26299C16.2637 0.97499 15.8657 0.994735 15.6183 1.11844ZM19.8025 19.4286V18.9286H19.3025H12.6866H12.1866V19.4286V29.098V29.598H12.6866H19.3025H19.8025V29.098V19.4286Z"
     fill="#66666B"
     stroke="#66666B"
     id="path2" />
  <path
     sodipodi:type="star"
     style="fill:#00ff00;stroke:#00c800"
     id="path847"
     inkscape:flatsided="false"
     sodipodi:sides="5"
     sodipodi:cx="14.31135"
     sodipodi:cy="8.7484665"
     sodipodi:r1="3.03774"
     sodipodi:r2="1.51887"
     sodipodi:arg1="0.69674228"
     sodipodi:arg2="1.3250608"
     inkscape:rounded="0"
     inkscape:randomized="0"
     d="m 16.641104,10.697853 -1.960259,-0.476145 -1.503538,1.34488 -0.152912,-2.0114541 -1.743677,-1.0143588 1.865755,-0.7670018 0.425886,-1.971789 1.306012,1.5374213 2.006889,-0.2042739 -1.058594,1.7171805 z"
     inkscape:transform-center-x="0.2283606"
     inkscape:transform-center-y="-0.064180176" />
  <path
     sodipodi:type="star"
     style="fill:#00ff00;stroke:#00c800"
     id="path849"
     inkscape:flatsided="false"
     sodipodi:sides="5"
     sodipodi:cx="19.493864"
     sodipodi:cy="12.219325"
     sodipodi:r1="2.4563396"
     sodipodi:r2="1.2281697"
     sodipodi:arg1="0.74432538"
     sodipodi:arg2="1.3726439"
     inkscape:rounded="0"
     inkscape:randomized="0"
     d="m 21.300613,13.883436 -1.564974,-0.459974 -1.266122,1.028422 -0.04614,-1.630518 -1.369341,-0.886354 1.536456,-0.547742 0.419823,-1.5762188 0.995725,1.2919948 1.628805,-0.0878 -0.921064,1.346239 z"
     inkscape:transform-center-x="0.14942537"
     inkscape:transform-center-y="-0.087857708" />
  <path
     sodipodi:type="star"
     style="fill:#00ff00;stroke:#00c800"
     id="path851"
     inkscape:flatsided="false"
     sodipodi:sides="5"
     sodipodi:cx="23.582823"
     sodipodi:cy="16.403374"
     sodipodi:r1="2.7333789"
     sodipodi:r2="1.3666894"
     sodipodi:arg1="0.69919259"
     sodipodi:arg2="1.3275111"
     inkscape:rounded="0"
     inkscape:randomized="0"
     d="m 25.674847,18.162576 -1.762799,-0.432759 -1.355855,1.206814 -0.133156,-1.810252 -1.566731,-0.916569 1.680504,-0.686037 0.387563,-1.773285 1.171765,1.386257 1.806257,-0.179381 -0.956314,1.542791 z"
     inkscape:transform-center-x="0.20347229"
     inkscape:transform-center-y="-0.059814414" />
  <path
     sodipodi:type="star"
     style="fill:#00ff00;stroke:#00c800"
     id="path853"
     inkscape:flatsided="false"
     sodipodi:sides="5"
     sodipodi:cx="6.3711658"
     sodipodi:cy="12.837423"
     sodipodi:r1="1.8104982"
     sodipodi:r2="0.90524912"
     sodipodi:arg1="1.332187"
     sodipodi:arg2="1.9605055"
     inkscape:rounded="0"
     inkscape:randomized="0"
     d="m 6.7990799,14.596626 -0.7718359,-0.92183 -1.1969465,0.113221 0.6382014,-1.01892 -0.4775562,-1.103377 1.166266,0.292102 0.9018005,-0.795145 0.082591,1.199449 1.0348996,0.61195 -1.1152222,0.449199 z"
     inkscape:transform-center-x="-0.13223273"
     inkscape:transform-center-y="0.042228084" />
  <path
     sodipodi:type="star"
     style="fill:#00ff00;stroke:#00c800"
     id="path855"
     inkscape:flatsided="false"
     sodipodi:sides="5"
     sodipodi:cx="10.365031"
     sodipodi:cy="15.309816"
     sodipodi:r1="2.5123017"
     sodipodi:r2="1.2561508"
     sodipodi:arg1="0.51445131"
     sodipodi:arg2="1.1427698"
     inkscape:rounded="0"
     inkscape:randomized="0"
     d="m 12.552148,16.546013 -1.665718,-0.09337 -1.0212351,1.319247 -0.425938,-1.613044 -1.570258,-0.563582 1.4024741,-0.903549 0.050762,-1.66756 1.2927142,1.05462 1.601631,-0.467027 -0.603533,1.55534 z"
     inkscape:transform-center-x="0.15445794"
     inkscape:transform-center-y="0.08820922" />
  <path
     sodipodi:type="star"
     style="fill:#ff0000;stroke:#00c800"
     id="path882"
     inkscape:flatsided="false"
     sodipodi:sides="5"
     sodipodi:cx="5.6579757"
     sodipodi:cy="20.825153"
     sodipodi:r1="2.2787392"
     sodipodi:r2="1.1393695"
     sodipodi:arg1="1.1631648"
     sodipodi:arg2="1.7914834"
     inkscape:rounded="0"
     inkscape:randomized="0"
     d="M 6.56135,22.917178 5.4085676,21.93689 3.9475,22.330785 4.5235799,20.931498 3.6974692,19.66366 5.2062886,19.779141 6.1567917,18.60168 6.5132135,20.072338 7.9267674,20.612464 6.6382288,21.4059 Z"
     inkscape:transform-center-x="-0.15414264"
     inkscape:transform-center-y="-0.065724459" />
  <path
     sodipodi:type="star"
     style="fill:#ff0000;stroke:#00c800"
     id="path884"
     inkscape:flatsided="false"
     sodipodi:sides="5"
     sodipodi:cx="18.59049"
     sodipodi:cy="11.38727"
     sodipodi:r1="2.3361175"
     sodipodi:r2="1.1680588"
     sodipodi:arg1="0.4301661"
     sodipodi:arg2="1.0584846"
     inkscape:rounded="0"
     inkscape:randomized="0"
     d="m 20.713779,12.361482 -1.550714,0.04388 -0.842973,1.30232 -0.520933,-1.461256 -1.499073,-0.399276 1.22876,-0.94699 -0.08351,-1.549086 1.280348,0.875984 1.447464,-0.5581119 -0.437461,1.4883779 z"
     inkscape:transform-center-x="0.083557631"
     inkscape:transform-center-y="0.14211197" />
  <path
     sodipodi:type="star"
     style="fill:#ff0000;stroke:#00c800"
     id="path886"
     inkscape:flatsided="false"
     sodipodi:sides="5"
     sodipodi:cx="24.343557"
     sodipodi:cy="12.076687"
     sodipodi:r1="3.0700443"
     sodipodi:r2="1.5350223"
     sodipodi:arg1="1.6514757"
     sodipodi:arg2="2.2797942"
     inkscape:rounded="0"
     inkscape:randomized="0"
     d="m 24.096137,15.136745 -0.751992,-1.894954 -1.987333,-0.454805 1.56983,-1.30076 -0.181574,-2.0306083 1.7222,1.0910403 1.875114,-0.8001799 -0.505452,1.9750589 1.340458,1.536071 -2.034586,0.129613 z"
     inkscape:transform-center-x="0.076457167"
     inkscape:transform-center-y="0.21949446" />
  <path
     sodipodi:type="star"
     style="fill:#ff0000;stroke:#00c800"
     id="path888"
     inkscape:flatsided="false"
     sodipodi:sides="5"
     sodipodi:cx="22.441717"
     sodipodi:cy="20.444784"
     sodipodi:r1="2.3877378"
     sodipodi:r2="1.1938689"
     sodipodi:arg1="0.95517644"
     sodipodi:arg2="1.583495"
     inkscape:rounded="0"
     inkscape:randomized="0"
     d="m 23.820551,22.394171 -1.393994,-0.755614 -1.412733,0.71997 0.287863,-1.559265 -1.121291,-1.121106 1.571904,-0.208065 0.719737,-1.412852 0.683627,1.430674 1.566113,0.247915 -1.149399,1.09227 z"
     inkscape:transform-center-x="-0.0093694605"
     inkscape:transform-center-y="-0.2190794" />
</svg>
