<?xml version="1.0" encoding="UTF-8" standalone="no"?>
<svg
   version="1.0"
   width="1024px"
   height="1024px"
   viewBox="0 0 1024 1024"
   preserveAspectRatio="xMidYMid meet"
   id="svg10"
   sodipodi:docname="chia_circle.svg"
   inkscape:version="1.1 (c68e22c387, 2021-05-23)"
   xmlns:inkscape="http://www.inkscape.org/namespaces/inkscape"
   xmlns:sodipodi="http://sodipodi.sourceforge.net/DTD/sodipodi-0.dtd"
   xmlns="http://www.w3.org/2000/svg"
   xmlns:svg="http://www.w3.org/2000/svg">
  <defs
     id="defs14">
    <inkscape:perspective
       sodipodi:type="inkscape:persp3d"
       inkscape:vp_x="502.37149 : 876.28904 : 1"
       inkscape:vp_y="0 : 168.21321 : 0"
       inkscape:vp_z="2225.9711 : 876.28904 : 1"
       inkscape:persp3d-origin="1364.1713 : 847.58065 : 1"
       id="perspective1085" />
  </defs>
  <sodipodi:namedview
     id="namedview12"
     pagecolor="#ffffff"
     bordercolor="#666666"
     borderopacity="1.0"
     inkscape:pageshadow="2"
     inkscape:pageopacity="0.0"
     inkscape:pagecheckerboard="0"
     showgrid="false"
     inkscape:zoom="0.63671875"
     inkscape:cx="511.21472"
     inkscape:cy="638.42945"
     inkscape:window-width="1600"
     inkscape:window-height="837"
     inkscape:window-x="-8"
     inkscape:window-y="-8"
     inkscape:window-maximized="1"
     inkscape:current-layer="svg10" />
  <g
     fill="#ffffff"
     id="g4">
    <path
       d="M490 1021 c-3.6 -0.4 -11.3 -0.8 -17.2 -0.9 -5.9 0 -11.9 -0.6 -13.5 -1.2 -1.5 -0.6 -6.6 -1.5 -11.3 -1.9 -12.1 -1.2 -24 -2.9 -27.4 -4 -1.6 -0.6 -4.9 -1 -7.3 -1 -2.4 0 -5.4 -0.5 -6.6 -1.2 -1.2 -0.7 -4.4 -1.5 -7.2 -1.9 -9.3 -1.4 -17 -3.1 -18 -4 -0.5 -0.5 -2.3 -0.9 -4 -0.9 -1.6 -0.1 -4.1 -0.7 -5.5 -1.5 -1.4 -0.8 -3.7 -1.4 -5.2 -1.5 -1.5 0 -3 -0.4 -3.3 -1 -0.3 -0.5 -1.6 -1 -2.8 -1 -1.2 0 -3.5 -0.7 -5.1 -1.5 -1.5 -0.8 -3.8 -1.5 -5 -1.5 -1.1 0 -3 -0.7 -4 -1.5 -1.1 -0.8 -3 -1.5 -4.2 -1.5 -1.3 0 -2.6 -0.4 -2.9 -1 -0.3 -0.5 -1.3 -1 -2.2 -1 -1.5 0 -6.5 -1.9 -11.6 -4.6 -1.6 -0.8 -3.6 -1.4 -4.5 -1.4 -0.9 0 -3.9 -1.2 -6.7 -2.5 -2.7 -1.4 -5.5 -2.5 -6.1 -2.5 -0.6 0 -1.7 -0.7 -2.4 -1.5 -0.7 -0.8 -1.9 -1.5 -2.8 -1.5 -1.8 0 -29.9 -13.7 -30.7 -15.1 -0.4 -0.5 -1.3 -0.9 -2.1 -0.9 -0.8 0 -3.1 -1.1 -5.2 -2.3 -2 -1.3 -6.4 -3.9 -9.7 -5.7 -3.3 -1.8 -7.4 -4.3 -9.2 -5.6 -1.7 -1.3 -3.5 -2.4 -3.9 -2.4 -0.4 0 -2.2 -1.1 -4 -2.5 -1.8 -1.4 -3.5 -2.5 -3.8 -2.5 -0.5 0 -14.6 -9.7 -17.1 -11.8 -0.6 -0.5 -5.5 -4.1 -11 -8.2 -5.5 -4 -10.2 -7.6 -10.5 -7.9 -0.3 -0.4 -2.5 -2.2 -5 -4.1 -2.5 -1.9 -4.7 -3.7 -5 -4 -0.3 -0.3 -5 -4.5 -10.5 -9.2 -20.3 -17.5 -43.5 -41.5 -58.9 -60.8 -6.8 -8.5 -15.1 -19.3 -16.1 -20.9 -0.5 -0.9 -3.7 -5.5 -7.1 -10.1 -3.3 -4.7 -8.3 -12.1 -11 -16.5 -2.6 -4.4 -5.4 -8.5 -6 -9.2 -0.6 -0.6 -2.3 -3.5 -3.8 -6.5 -1.5 -2.9 -3.6 -6.6 -4.6 -8.3 -2 -3.2 -17.8 -34.7 -21.5 -43 -1.3 -2.7 -3.5 -7.6 -4.9 -10.7 -1.4 -3.1 -2.6 -6.3 -2.6 -7 0 -0.8 -0.7 -2.3 -1.5 -3.4 -0.8 -1 -1.5 -2.8 -1.5 -3.9 0 -1.1 -0.6 -2.9 -1.3 -4 -0.7 -1.1 -1.9 -4 -2.6 -6.5 -0.7 -2.5 -1.9 -6 -2.7 -7.8 -0.8 -1.8 -1.4 -4.1 -1.4 -5 0 -1 -0.4 -2.2 -0.9 -2.7 -1.1 -1.3 -4.1 -10.9 -4.1 -13.2 0 -1 -0.7 -3.1 -1.5 -4.7 -0.8 -1.5 -1.5 -3.8 -1.5 -5.1 0 -1.2 -0.7 -3.9 -1.5 -5.8 -0.8 -2 -1.5 -5 -1.5 -6.6 0 -1.6 -0.5 -3.3 -1 -3.6 -0.6 -0.3 -1 -2.2 -1 -4.1 0 -1.9 -0.7 -5.1 -1.5 -7.1 -0.8 -1.9 -1.5 -5.3 -1.5 -7.5 0 -2.2 -0.5 -4.8 -1.1 -6 -1.1 -2 -2.3 -10.2 -3.8 -25.8 -0.4 -4.7 -1.3 -10.1 -1.9 -12 -3.3 -10.9 -3.3 -99.1 0 -110 0.6 -1.9 1.5 -7.5 1.9 -12.5 1.2 -13.6 2.6 -23.2 3.8 -25.4 0.6 -1.1 1.1 -3.7 1.1 -5.9 0 -2.2 0.7 -5.6 1.5 -7.5 0.8 -2 1.5 -5.1 1.5 -7 0 -1.8 0.4 -3.7 0.9 -4.2 0.5 -0.6 1.1 -2.8 1.4 -5 0.2 -2.2 0.9 -5.5 1.6 -7.2 2.8 -8.1 3.4 -10 4.1 -13.8 1.2 -5.9 3.1 -11.9 4.1 -12.9 0.5 -0.6 0.9 -1.8 0.9 -2.8 0 -0.9 0.6 -3.2 1.4 -5 0.8 -1.8 2 -5.3 2.7 -7.8 0.7 -2.5 1.9 -5.4 2.6 -6.5 0.7 -1.1 1.3 -2.7 1.3 -3.6 0 -1 0.6 -3 1.4 -4.6 0.8 -1.5 2 -4.1 2.6 -5.8 1.1 -2.8 2.4 -5.8 4.8 -11.5 2 -4.8 7.3 -16.5 8.2 -18 0.5 -0.8 2.3 -4.4 4 -8 1.7 -3.6 3.5 -7.2 4 -8 0.5 -0.8 1.9 -3.3 3 -5.5 1.1 -2.2 2.9 -5.3 4 -7 1 -1.6 3.3 -5.8 5.1 -9.3 1.8 -3.4 3.6 -6.2 4.1 -6.2 0.4 0 0.8 -0.6 0.8 -1.4 0 -0.8 0.6 -2.1 1.3 -2.8 0.7 -0.7 3.2 -4.4 5.6 -8.3 6.1 -9.7 17.8 -25.8 28.6 -39.5 21.4 -27.1 58.6 -64.2 82.6 -82.5 13.3 -10.2 26 -19.5 26.4 -19.5 0.3 0 3 -1.8 6 -4 3 -2.2 5.7 -4 6 -4 0.4 0 2.1 -1.1 3.9 -2.5 1.8 -1.4 3.5 -2.5 3.8 -2.5 0.3 0 3 -1.6 5.9 -3.6 3 -2 6.3 -4 7.4 -4.5 1.1 -0.5 4.3 -2.3 7 -3.9 7.9 -4.7 39 -20 40.7 -20 0.9 0 2.1 -0.7 2.8 -1.5 0.7 -0.8 1.8 -1.5 2.5 -1.5 0.8 0 2.8 -0.8 4.7 -1.7 6.1 -3 6.8 -3.3 8.6 -3.3 1 0 2.7 -0.7 3.8 -1.5 1 -0.8 2.6 -1.5 3.5 -1.5 0.9 0 3 -0.7 4.5 -1.5 1.6 -0.8 3.7 -1.5 4.6 -1.5 0.9 0 2 -0.4 2.3 -1 0.3 -0.5 1.8 -1 3.3 -1 1.5 0 3.6 -0.7 4.6 -1.5 1.1 -0.8 3.2 -1.5 4.6 -1.5 1.4 0 3 -0.4 3.5 -0.9 0.6 -0.5 3.7 -1.6 7 -2.5 3.3 -0.9 7.4 -2.2 9 -2.7 1.7 -0.6 4.6 -1.5 6.5 -2 1.9 -0.4 6.4 -1.6 10 -2.4 3.6 -0.9 8.8 -2 11.7 -2.5 2.8 -0.4 5.8 -1.2 6.5 -1.6 0.7 -0.5 3.6 -1.2 6.3 -1.6 7.9 -1.1 16.7 -2.8 20.1 -3.9 1.7 -0.5 6.1 -0.9 9.8 -0.9 3.7 0 9.7 -0.6 13.4 -1.4 17.3 -3.7 93.2 -4 108.2 -0.4 2.5 0.6 9 1.4 14.5 1.8 5.5 0.5 13.4 1.5 17.5 2.5 4.1 0.9 10 1.9 13 2.3 3 0.4 6.1 1.1 6.8 1.6 0.7 0.4 3.7 1.2 6.5 1.6 2.9 0.5 8.1 1.6 11.7 2.5 3.6 0.8 8.1 2 10 2.4 1.9 0.5 4.9 1.4 6.5 2 1.7 0.5 5.7 1.8 9 2.7 3.3 0.9 6.4 2 7 2.5 0.5 0.5 2.1 0.9 3.5 0.9 1.4 0 3.5 0.7 4.6 1.5 1 0.8 3.1 1.5 4.6 1.5 1.5 0 3 0.5 3.3 1 0.3 0.6 1.4 1 2.3 1 0.9 0 3 0.7 4.6 1.5 1.5 0.8 3.6 1.5 4.5 1.5 0.9 0 2.5 0.7 3.5 1.5 1.1 0.8 2.8 1.5 3.8 1.5 1 0 2.6 0.4 3.6 0.9 0.9 0.4 3.5 1.6 5.7 2.6 2.2 0.9 4.7 2.1 5.5 2.6 0.8 0.5 2.2 1.2 3 1.5 0.8 0.3 2.4 0.9 3.5 1.4 4 1.5 33.1 16.2 38 19 2.8 1.6 5.9 3.4 7 3.9 1.1 0.5 4.4 2.5 7.4 4.5 2.9 2 5.6 3.6 5.9 3.6 0.3 0 1.9 1 3.6 2.3 1.7 1.3 3.8 2.6 4.6 3 2.3 1.1 23.5 16 31.8 22.4 21.6 16.7 44.7 37.8 62.2 56.8 9.7 10.5 20.2 22.4 22.5 25.5 1.1 1.5 3.4 4.5 5.2 6.6 12.7 15.7 35.3 48.6 40.4 58.9 1.1 2.2 2.8 5.4 3.9 7 4.5 7.1 22.9 45.3 28 58 0.6 1.7 1.8 4.3 2.6 5.8 0.8 1.6 1.4 3.6 1.4 4.6 0 0.9 0.6 2.5 1.3 3.6 0.7 1.1 1.9 4 2.6 6.5 0.7 2.5 1.9 6.1 2.6 8 3.8 10.7 4.7 13.8 6.5 21 0.4 1.9 1.3 4.9 1.8 6.5 3.3 9.7 3.6 10.9 6.1 24.2 0.5 2.8 1.4 6.1 2 7.2 0.6 1.1 1.1 3.8 1.1 6.1 0 2.3 0.5 5 1.1 6.1 1.1 2.1 2.4 10.7 3.8 25.5 0.5 5 1.3 10.6 1.9 12.5 3.5 11.5 3.2 96.1 -0.4 111.5 -0.8 3.3 -1.4 8.4 -1.4 11.4 0 2.9 -0.4 6.7 -0.9 8.4 -1 3.2 -2.8 13.3 -4 22.6 -0.4 3 -1.3 6.8 -1.9 8.3 -0.7 1.6 -1.2 4.3 -1.2 6.1 0 1.7 -0.4 3.6 -0.9 4.2 -0.5 0.5 -1.1 2.7 -1.4 4.9 -0.2 2.2 -1 5.6 -1.7 7.5 -2.6 7.6 -3.2 9.7 -4 13.5 -1.2 5.9 -3.1 11.9 -4.1 13 -0.5 0.5 -0.9 1.7 -0.9 2.7 0 0.9 -0.6 3.2 -1.4 5 -0.8 1.8 -2 5.3 -2.7 7.8 -0.7 2.5 -1.9 5.4 -2.6 6.5 -0.7 1.1 -1.3 2.7 -1.3 3.6 0 1 -0.6 3 -1.4 4.6 -0.8 1.5 -2 4.2 -2.6 5.8 -1.7 4.3 -3.4 8.2 -6.5 15 -1.5 3.3 -3.4 7.6 -4.2 9.5 -0.8 1.9 -1.9 4.2 -2.3 5 -0.5 0.8 -3.6 6.9 -7 13.5 -3.4 6.6 -7 13.4 -8 15 -1 1.7 -3.3 5.7 -5.1 9 -1.7 3.3 -3.5 6.2 -3.8 6.5 -0.4 0.3 -2.9 4.1 -5.6 8.5 -5.5 9.1 -15 22.7 -24.3 34.8 -3.5 4.5 -7.6 9.9 -9.2 12 -3 4 -11 13.2 -21.9 25.2 -8.7 9.6 -25.6 25.9 -37.6 36.3 -5.5 4.7 -10.2 8.9 -10.5 9.2 -0.3 0.3 -2.5 2.1 -5 4 -2.5 1.9 -4.7 3.7 -5 4.1 -0.3 0.3 -5 3.9 -10.5 7.9 -5.5 4 -10.1 7.7 -10.3 8.2 -0.2 0.4 -0.8 0.8 -1.3 0.8 -0.5 0 -4.3 2.5 -8.4 5.5 -4 3 -7.7 5.5 -8 5.5 -0.4 0 -2.1 1.1 -3.9 2.5 -1.8 1.4 -3.6 2.5 -4 2.5 -0.4 0 -2.2 1.1 -3.9 2.4 -3.5 2.6 -13.4 8.3 -21.2 12.2 -2.7 1.3 -5.8 2.9 -6.7 3.4 -9.5 5.3 -27.5 14 -29 14 -0.9 0 -2.1 0.7 -2.8 1.5 -0.7 0.8 -1.8 1.5 -2.5 1.5 -0.8 0 -2.8 0.8 -4.7 1.7 -6 3 -6.8 3.3 -8.2 3.3 -0.8 0 -2.7 0.6 -4.3 1.4 -5.1 2.7 -10.1 4.6 -11.6 4.6 -0.9 0 -1.9 0.5 -2.2 1 -0.3 0.6 -1.6 1 -2.9 1 -1.2 0 -3.1 0.7 -4.2 1.5 -1 0.8 -2.9 1.5 -4 1.5 -1.2 0 -3.5 0.7 -5 1.5 -1.6 0.8 -3.9 1.5 -5.1 1.5 -1.2 0 -2.5 0.5 -2.8 1 -0.3 0.6 -1.7 1 -3.1 1 -1.4 0 -3.5 0.5 -4.7 1.2 -1.2 0.6 -4 1.5 -6.2 1.9 -2.2 0.5 -6.9 1.6 -10.5 2.5 -3.6 0.9 -8.7 1.9 -11.5 2.3 -2.7 0.4 -6 1.2 -7.2 1.9 -1.2 0.7 -4.2 1.2 -6.6 1.2 -2.4 0 -5.7 0.4 -7.3 1 -3.5 1.1 -15.6 2.9 -27.5 4 -4.8 0.4 -9.3 1.1 -10 1.6 -2.8 1.8 -65.1 3.8 -75.9 2.4z m-1.9 -280.5 c17.8 -1.7 37.9 -4.9 40.9 -6.5 1 -0.5 2.9 -1 4.2 -1 1.3 0 4.3 -0.6 6.8 -1.4 2.5 -0.8 9.7 -3.1 16 -5.1 6.3 -2.1 14 -4.8 17 -6.1 3 -1.2 10 -4.2 15.5 -6.5 5.5 -2.3 11.1 -4.9 12.5 -5.9 1.4 -0.9 5 -3 8 -4.6 29.4 -15.5 63.6 -46.6 99.1 -90 10.8 -13.3 17.9 -22.4 22.4 -28.9 2.2 -3.1 6.1 -8.4 8.6 -11.8 9.6 -13 51.9 -77.5 51.9 -79.2 0 -0.2 2.9 -5.2 6.5 -11 8.2 -13.2 28 -48.3 35.8 -63.5 3.3 -6.3 8.3 -15.8 11.1 -21 4.8 -8.7 16 -31.2 26.8 -53.6 l4.4 -9.1 -3.6 -1 c-1.9 -0.6 -9.6 -3.2 -17 -5.8 -7.4 -2.6 -15.5 -5.3 -18 -6 -2.5 -0.7 -8.1 -2.5 -12.5 -3.8 -30 -9.4 -63.1 -18.7 -75.5 -21.3 -3.6 -0.8 -8.7 -2.1 -11.5 -2.9 -5.6 -1.7 -16.5 -4.2 -37 -8.4 -7.7 -1.6 -14.7 -3.2 -15.5 -3.5 -2.8 -1 -30.5 -5.5 -41 -6.6 -36.8 -3.9 -80.9 -4.9 -111.5 -2.5 -25 1.9 -39.2 3.6 -55 6.5 -12.9 2.3 -34.5 7.4 -39.5 9.3 -1.9 0.8 -7.3 2.6 -12 4.2 -9.8 3.2 -28.2 11.7 -37.3 17.1 -15.4 9.3 -36 23.5 -39.7 27.4 -0.3 0.3 -3 2.4 -6 4.7 -12.5 9.6 -41.6 41.3 -51.8 56.6 -23.8 35.5 -35.2 62.1 -43.7 102.2 -2.1 9.7 -2.7 15.8 -3.1 32 -0.6 20.1 -0.6 20.1 3.4 43.9 l0.7 3.9 3 -2.5 c11.4 -9.4 47.9 -29.9 73.5 -41.1 3.6 -1.6 7.2 -3.3 8.1 -3.7 0.9 -0.5 8.1 -3.4 16 -6.5 7.9 -3.1 15.3 -6 16.4 -6.5 1.1 -0.4 4 -1.5 6.5 -2.5 2.5 -1 5.4 -2.1 6.5 -2.6 3 -1.3 24.2 -8.8 30 -10.6 2.8 -0.8 6.1 -1.9 7.5 -2.5 2.5 -1 26.8 -9 32.5 -10.7 1.7 -0.5 5.7 -1.7 9 -2.6 3.3 -0.9 9.2 -2.7 13 -4 8.2 -2.7 24.5 -7.4 29.5 -8.6 1.9 -0.4 10.9 -2.8 20 -5.3 16.3 -4.6 23.2 -6.5 38.2 -10.5 4.3 -1.2 9.3 -2.1 11.3 -2.1 3.3 0 3.5 0.2 3.5 3.5 0 2.4 -0.5 3.5 -1.5 3.5 -0.8 0 -2 0.9 -2.7 2 -0.7 1.1 -1.7 2 -2.2 2 -3.5 0 -43.2 15.9 -83.1 33.2 -14.9 6.5 -21.3 9.4 -34 15.3 -10.6 4.9 -60.4 29.7 -68.5 34 -15.7 8.5 -28.5 15.5 -34 18.6 -3 1.7 -7.3 4.1 -9.5 5.4 -10.1 5.7 -12.9 7.3 -26.8 15.6 -8.1 4.9 -15.2 8.9 -15.7 8.9 -0.6 0 -1 0.3 -1 0.8 0 0.4 -1.7 1.6 -3.7 2.7 -2.1 1.1 -4 2.3 -4.3 2.6 -0.3 0.4 -3 2.1 -6 3.9 -12.2 7.4 -82.9 55.1 -88.5 59.8 -0.5 0.4 -3.7 2.8 -6.9 5.2 -3.3 2.4 -6.7 4.9 -7.5 5.6 -3.2 2.5 -38.4 28.9 -39.8 29.9 -0.9 0.6 -2.6 2 -3.9 3.3 -1.3 1.2 -2.7 2.2 -3.2 2.2 -0.6 0 -1.2 0.7 -1.6 1.5 -0.3 0.9 3.2 -0.4 9.2 -3.4 24.3 -12.2 55.1 -26.4 68.7 -31.7 4.9 -1.9 11.6 -4.7 14.8 -6 18.2 -7.9 41.6 -14.4 54.9 -15.1 l10.7 -0.6 9.8 10.3 c5.4 5.7 10.5 10.9 11.3 11.6 0.8 0.7 5.1 4.2 9.5 7.9 15.6 13 36.2 24.9 57 33 3.9 1.5 8.4 3.3 10 4 7 3.1 33.2 9 46 10.5 5.5 0.6 13.2 1.5 17 1.9 11.3 1.3 23.4 1.2 40.6 -0.4z"
       id="path2" />
  </g>
  <g
     fill="#32a752"
     id="g8">
    <path
       d="M461 744.9 c-14 -0.6 -23.2 -1.4 -29.6 -2.4 -1.7 -0.3 -5.3 -0.7 -8 -1 -2.7 -0.3 -7.4 -1 -10.4 -1.7 -3 -0.6 -6.2 -1.2 -7 -1.3 -0.8 -0.1 -2.8 -0.7 -4.3 -1.4 -1.6 -0.6 -3.5 -1.1 -4.4 -1.1 -2 0 -11.8 -2.8 -15.8 -4.5 -1.6 -0.7 -6.1 -2.5 -10 -4 -20.8 -8.1 -41.4 -20 -57 -33 -4.4 -3.7 -8.7 -7.2 -9.5 -7.9 -0.8 -0.7 -5.9 -5.9 -11.3 -11.5 l-9.7 -10.3 -8 0.6 c-10.9 1 -36.4 8.3 -51.7 15 -3.2 1.3 -9.9 4.1 -14.8 6 -14.6 5.7 -36.7 16 -80.5 37.4 -14.6 7.2 -21.3 10.8 -30 16.4 -1.5 1 -3.2 1.3 -4.5 0.9 -1.6 -0.7 -1.1 -1.3 3.5 -4.3 3 -2 7 -5 8.8 -6.7 1.8 -1.7 3.7 -3.1 4.1 -3.1 0.4 0 2.3 -1.5 4.2 -3.3 1.9 -1.7 4.8 -4.1 6.4 -5.1 3 -1.9 3.9 -2.6 8.6 -6.8 1.5 -1.3 3.3 -2.7 4.2 -3.3 1.4 -1 36.6 -27.4 39.8 -29.9 0.8 -0.7 4.2 -3.2 7.5 -5.6 3.2 -2.4 6.4 -4.8 6.9 -5.2 5.6 -4.7 76.3 -52.4 88.5 -59.8 3 -1.8 5.7 -3.5 6 -3.9 0.3 -0.3 2.2 -1.5 4.3 -2.6 2 -1.1 3.7 -2.3 3.7 -2.7 0 -0.5 0.4 -0.8 1 -0.8 0.5 0 7.6 -4 15.7 -8.9 13.9 -8.3 16.7 -9.9 26.8 -15.6 2.2 -1.3 6.5 -3.7 9.5 -5.4 5.5 -3.1 18.3 -10.1 34 -18.6 8.1 -4.3 57.9 -29.1 68.5 -34 22.1 -10.3 47.1 -21.1 76.5 -33.3 18.7 -7.7 38.7 -15.2 40.6 -15.2 0.5 0 1.5 -0.9 2.2 -2 0.7 -1.1 2 -2 2.9 -2 0.9 0 1.4 -0.2 1.1 -0.5 -0.3 -0.3 -3.9 0.3 -7.9 1.5 -8.8 2.4 -8.8 2.4 -16.4 4.4 -3.3 0.8 -9.1 2.5 -13 3.6 -3.8 1.2 -8.1 2.3 -9.5 2.6 -1.4 0.3 -5.6 1.4 -9.5 2.6 -3.8 1.1 -8.6 2.3 -10.5 2.8 -4.8 1 -20.9 5.7 -30 8.7 -4.1 1.3 -8.8 2.8 -10.5 3.3 -10.3 2.9 -16.4 4.7 -28 8.5 -7.1 2.4 -14.1 4.8 -15.5 5.3 -1.4 0.6 -4.7 1.7 -7.5 2.5 -2.7 0.8 -8.1 2.7 -12 4.2 -3.8 1.5 -7.4 2.8 -8 2.9 -1.9 0.4 -6 1.8 -9 3.1 -1.6 0.7 -5 2 -7.5 3 -2.5 0.9 -5.4 2.1 -6.5 2.5 -1.1 0.5 -8.5 3.4 -16.4 6.5 -7.9 3.1 -15.1 6 -16 6.5 -0.9 0.4 -4.5 2.1 -8.1 3.7 -26.7 11.7 -58.8 29.9 -76.7 43.4 -2.2 1.7 -4.6 2.8 -5.2 2.5 -0.6 -0.4 -1.1 -2.5 -1.1 -4.6 0 -2.1 -0.4 -5 -0.9 -6.3 -0.6 -1.4 -1.3 -5.1 -1.6 -8.4 -0.4 -3.2 -0.9 -6.6 -1.1 -7.5 -0.7 -2.5 -0.7 -32.2 0.1 -41.3 1.3 -16.7 8.2 -44.9 15.8 -64.5 7.6 -19.7 16.2 -35.8 30.9 -57.7 10.2 -15.3 39.3 -47 51.8 -56.6 3 -2.3 5.7 -4.4 6 -4.7 3.7 -3.9 24.3 -18.1 39.7 -27.4 9.1 -5.4 27.5 -13.9 37.3 -17.1 4.7 -1.6 10.1 -3.4 12 -4.2 5 -1.9 26.6 -7 39.5 -9.3 32.2 -5.9 68 -8.4 108 -7.6 17.1 0.3 33 0.8 35.5 1 2.5 0.3 7.7 0.7 11.5 1 18.2 1.3 53.1 6.2 58.5 8.2 0.8 0.3 7.8 1.9 15.5 3.5 20.5 4.2 31.4 6.7 37 8.4 2.8 0.8 7.9 2.1 11.5 2.9 12.4 2.6 45.5 11.9 75.5 21.3 4.4 1.3 10 3.1 12.5 3.8 9.1 2.7 37.9 12.7 39.7 13.8 0.8 0.5 -0.4 3.9 -4.1 11.5 -2.9 5.9 -9.3 18.8 -14.1 28.7 -4.9 9.9 -11.2 22.3 -14.1 27.5 -2.8 5.2 -7.8 14.7 -11.1 21 -7.8 15.2 -27.6 50.3 -35.8 63.5 -3.6 5.8 -6.5 10.8 -6.5 11 0 1.7 -42.3 66.2 -51.9 79.2 -2.5 3.4 -6.4 8.7 -8.6 11.8 -14 20.1 -43.8 55.1 -62.4 73.4 -8.3 8.1 -27.4 24.6 -35.6 30.6 -6.1 4.6 -17.4 11.7 -23.5 14.9 -3 1.6 -6.6 3.7 -8 4.6 -1.4 1 -7 3.6 -12.5 5.9 -5.5 2.3 -12.5 5.3 -15.5 6.5 -3 1.3 -10.7 4 -17 6.1 -6.3 2 -13.5 4.3 -16 5.1 -2.5 0.8 -5.3 1.4 -6.3 1.4 -1 0 -3.9 0.7 -6.5 1.5 -8.1 2.6 -33.7 6.2 -45.2 6.4 -1.9 0 -4.8 0.4 -6.5 0.8 -1.6 0.5 -9.5 0.5 -17.5 0.2z"
       id="path6" />
  </g>
  <path
     style="fill:#ff0000"
     id="path296"
     d="m 38.300385,754.93885 c 1.102975,-1.41376 2.285628,-2.76883 3.308924,-4.24129 4.877858,-7.01895 20.255731,-31.12162 22.166857,-34.09168 12.91121,-20.06514 39.130204,-60.62937 50.393174,-79.20273 10.56624,-17.42442 20.59604,-35.16854 30.89406,-52.75281 30.37452,-54.87058 55.06356,-112.56313 77.03842,-171.22522 20.66255,-55.15887 11.78591,-34.48715 29.04499,-84.26772 3.12216,-9.00528 6.58342,-17.88939 9.87512,-26.83409 3.44641,-5.22346 6.07193,-11.093 10.33921,-15.67039 0.79877,-0.85681 0.23053,2.62981 1.18551,3.30816 4.9796,3.53716 11.37649,4.93197 16.01289,8.90837 6.94183,5.95366 12.89237,13.07312 18.25474,20.48124 16.14308,22.30167 21.73461,37.95048 33.23017,63.0525 19.08519,46.0386 31.21652,94.4359 41.68422,143.02602 -1.24883,-7.64964 0.81808,10.25336 3.21187,8.43228 5.98231,-4.55104 12.22769,-9.1961 16.4736,-15.3987 3.97758,-5.81062 4.88008,-13.21429 7.56824,-19.72261 4.21586,-10.20701 8.53129,-20.37722 13.13959,-30.41316 5.78074,-12.58924 12.01411,-24.96567 18.02116,-37.44851 17.11557,-33.81291 35.94459,-66.72749 55.47521,-99.19308 2.27931,-3.78888 18.09732,-30.22512 23.08174,-35.6432 2.51016,-2.72854 6.07833,-4.24701 9.1175,-6.37051 -0.69137,3.56931 -3.51951,7.37194 -2.07411,10.70792 3.09657,7.14692 10.30445,11.74482 14.61354,18.2332 7.23237,10.89008 13.55171,22.36599 19.92849,33.77817 8.24019,14.747 16.04045,29.73618 23.91306,44.68264 4.43586,8.42165 46.79735,90.23916 51.24722,98.82997 30.63142,59.60509 62.30148,118.66675 92.82695,178.32584 5.82698,11.88578 3.43119,6.49212 7.42498,16.07335 0,0 12.52167,-7.07407 12.52167,-7.07407 v 0 c -4.66902,-9.30569 -1.93153,-4.06519 -8.37389,-15.63609 -33.05443,-58.23955 -65.38073,-116.90264 -96.54821,-176.17475 -8.51956,-16.42133 -17.11992,-32.80099 -25.55869,-49.26397 -16.21111,-31.62581 -31.77205,-63.58304 -48.07964,-95.15921 -6.02732,-11.67062 -11.80891,-23.49133 -18.52788,-34.77793 -4.08337,-6.85931 -6.6223,-16.10483 -13.81908,-19.55889 -6.77565,-3.25194 -14.96245,1.43649 -22.44368,2.15474 -2.76264,2.17479 -6.01357,3.84309 -8.28792,6.52436 -4.40095,5.18835 -19.71678,31.84412 -21.5906,35.0763 -18.86153,32.53466 -37.24469,65.36058 -54.43605,98.81364 -17.75592,35.69823 -17.88072,35.03879 -33.15173,68.85692 -3.02923,6.70835 -8.83653,12.88405 -8.81814,20.24462 0.007,2.99538 5.91001,0.98202 8.87227,1.42631 0.52804,0.0792 -1.04489,-0.22045 -1.56733,-0.33068 -0.6597,-2.19002 -1.3194,-4.38003 -1.9791,-6.57005 -12.86889,-47.85364 -24.9715,-96.06419 -44.24777,-141.87828 -11.17061,-24.92571 -17.14507,-41.36469 -32.482,-63.86924 -5.19907,-7.62882 -10.8951,-15.05015 -17.64858,-21.34456 -4.64717,-4.33127 -9.78231,-10.17025 -16.13489,-10.14246 -22.02841,0.0963 -24.74472,11.52095 -33.2734,25.80118 -2.93448,8.78893 -5.99041,17.53823 -8.80342,26.36679 -12.99057,40.77058 -11.1997,39.50815 -27.11069,83.29838 -21.36296,58.79516 -46.14656,116.36181 -76.81174,170.96792 -10.57258,17.69418 -20.8356,35.57704 -31.71776,53.08253 -13.284634,21.37021 -38.015178,58.26072 -52.971719,80.31291 -2.856752,4.21204 -18.50304,27.33412 -24.475174,34.89872 -1.144371,1.44952 -2.564086,2.65861 -3.846129,3.98792 0,0 13.913947,-5.39702 13.913947,-5.39702 z" />
  <path
     sodipodi:type="star"
     style="fill:#ff0000"
     id="path326"
     inkscape:flatsided="false"
     sodipodi:sides="5"
     sodipodi:cx="439.75461"
     sodipodi:cy="826.11041"
     sodipodi:r1="73.430664"
     sodipodi:r2="36.715332"
     sodipodi:arg1="0.84593018"
     sodipodi:arg2="1.4742487"
     inkscape:rounded="0"
     inkscape:randomized="0"
     d="m 488.44173,881.07974 -45.14785,-18.42498 -40.77306,26.74631 3.57175,-48.63178 -38.03683,-30.51243 47.35531,-11.63111 17.26501,-45.60403 25.69544,41.44336 48.70719,2.32759 -31.47465,37.24452 z"
     inkscape:transform-center-x="2.187391"
     inkscape:transform-center-y="-4.8990161" />
  <path
     sodipodi:type="star"
     style="fill:#ff0000"
     id="path328"
     inkscape:flatsided="false"
     sodipodi:sides="5"
     sodipodi:cx="604.6626"
     sodipodi:cy="818.25769"
     sodipodi:r1="55.704807"
     sodipodi:r2="27.852404"
     sodipodi:arg1="1.9460671"
     sodipodi:arg2="2.5743857"
     inkscape:rounded="0"
     inkscape:randomized="0"
     d="m 584.24542,870.08591 -3.07368,-36.86372 -32.10996,-18.36659 34.10966,-14.31476 7.54514,-36.21398 24.15461,28.01672 36.77311,-4.01489 -19.18129,31.63005 15.1819,33.73264 -36.0093,-8.46828 z"
     inkscape:transform-center-x="4.3095572"
     inkscape:transform-center-y="-1.0513033" />
  <path
     sodipodi:type="star"
     style="fill:#ff0000"
     id="path340"
     inkscape:flatsided="false"
     sodipodi:sides="5"
     sodipodi:cx="778.9939"
     sodipodi:cy="815.11658"
     sodipodi:r1="94.403122"
     sodipodi:r2="47.201557"
     sodipodi:arg1="0.773634"
     sodipodi:arg2="1.4019525"
     inkscape:rounded="0"
     inkscape:randomized="0"
     d="m 846.52764,881.07977 -59.60187,-19.43286 -49.79752,38.08182 0.0638,-62.68982 -51.60624,-35.59234 59.64127,-19.31159 17.90311,-60.07909 36.79658,50.75461 62.67098,-1.53858 -36.89974,50.67966 z"
     inkscape:transform-center-x="4.9021698"
     inkscape:transform-center-y="-4.2242636" />
  <g
     sodipodi:type="inkscape:box3d"
     id="g1087"
     style="fill:#ff6600"
     inkscape:perspectiveID="#perspective1085"
     inkscape:corner0="3.1794872 : 1.0998519 : 0 : 1"
     inkscape:corner7="-4.0185185 : -1.1158974 : 0.25 : 1">
    <path
       sodipodi:type="inkscape:box3dside"
       id="path1093"
       style="fill:#8686bf;fill-rule:evenodd;stroke:none;stroke-width:0.532106;stroke-linejoin:round"
       inkscape:box3dsidetype="3"
       d="M 708.56899,110.31373 216.86726,199.49174 V 76.014506 L 708.56899,199.49173 Z"
       points="216.86726,199.49174 216.86726,76.014506 708.56899,199.49173 708.56899,110.31373 " />
    <path
       sodipodi:type="inkscape:box3dside"
       id="path1089"
       style="fill:#353564;fill-rule:evenodd;stroke:none;stroke-width:0.532106;stroke-linejoin:round"
       inkscape:box3dsidetype="6"
       d="m 708.56899,110.31373 v 89.178 l 85.64209,-2.9225 v -84.1448 z"
       points="708.56899,199.49173 794.21108,196.56923 794.21108,112.42443 708.56899,110.31373 " />
    <path
       sodipodi:type="inkscape:box3dside"
       id="path1091"
       style="fill:#4d4d9f;fill-rule:evenodd;stroke:none;stroke-width:0.532106;stroke-linejoin:round"
       inkscape:box3dsidetype="5"
       d="M 708.56899,110.31373 216.86726,199.49174 35.443163,204.16759 794.21108,112.42443 Z"
       points="216.86726,199.49174 35.443163,204.16759 794.21108,112.42443 708.56899,110.31373 " />
    <path
       sodipodi:type="inkscape:box3dside"
       id="path1099"
       style="fill:#e9e9ff;fill-rule:evenodd;stroke:none;stroke-width:0.532106;stroke-linejoin:round"
       inkscape:box3dsidetype="11"
       d="M 794.21108,112.42443 35.443163,204.16759 V 69.540244 L 794.21108,196.56923 Z"
       points="35.443163,204.16759 35.443163,69.540244 794.21108,196.56923 794.21108,112.42443 " />
    <path
       sodipodi:type="inkscape:box3dside"
       id="path1095"
       style="fill:#d7d7ff;fill-rule:evenodd;stroke:none;stroke-width:0.532106;stroke-linejoin:round"
       inkscape:box3dsidetype="14"
       d="M 216.86726,199.49174 V 76.014506 L 35.443163,69.540244 V 204.16759 Z"
       points="216.86726,76.014506 35.443163,69.540244 35.443163,204.16759 216.86726,199.49174 " />
    <path
       sodipodi:type="inkscape:box3dside"
       id="path1097"
       style="fill:#afafde;fill-rule:evenodd;stroke:none;stroke-width:0.532106;stroke-linejoin:round"
       inkscape:box3dsidetype="13"
       d="M 708.56899,199.49173 216.86726,76.014506 35.443163,69.540244 794.21108,196.56923 Z"
       points="216.86726,76.014506 35.443163,69.540244 794.21108,196.56923 708.56899,199.49173 " />
  </g>
</svg>
