<?xml version="1.0" encoding="utf-8"?>
<!-- Generator: Adobe Illustrator 14.0.0, SVG Export Plug-In . SVG Version: 6.00 Build 43363)  -->
<!DOCTYPE svg PUBLIC "-//W3C//DTD SVG 1.1//EN" "http://www.w3.org/Graphics/SVG/1.1/DTD/svg11.dtd">
<svg version="1.1" id="Layer_7" xmlns="http://www.w3.org/2000/svg" xmlns:xlink="http://www.w3.org/1999/xlink" x="0px" y="0px"
	 width="255px" height="255px" viewBox="0 0 255 255" enable-background="new 0 0 255 255" xml:space="preserve">
<path fill="none" stroke="#020001" stroke-width="2.6527" d="M131.957,237.062C89.506,239.546,20.74,200.571,22.23,125.845
	C23.808,46.639,94.222,24.311,97.449,23.071"/>
<path fill="#8CA541" stroke="#020001" stroke-width="2.6527" d="M112.339,234.445c0,0-18.854-5.252-9.013-24.595
	C114.97,215.595,119.16,223.123,112.339,234.445z"/>
<path fill="#8CA541" stroke="#020001" stroke-width="2.6527" d="M93.204,228.626c0,0-18.03-7.614-5.8-25.545
	C98.22,210.265,101.415,218.265,93.204,228.626z"/>
<path fill="#8CA541" stroke="#020001" stroke-width="2.6527" d="M74.978,219.64c0,0-16.755-10.117-2.085-26.11
	C82.57,202.186,84.586,210.564,74.978,219.64z"/>
<path fill="#8CA541" stroke="#020001" stroke-width="2.6527" d="M57.409,205.765c0,0-12.87-14.744,5.981-25.502
	C69.963,191.462,69.329,200.052,57.409,205.765z"/>
<path fill="#8CA541" stroke="#020001" stroke-width="2.6527" d="M43.892,191c0,0-9.846-14.604,8.189-22.105
	C56.702,179.627,55.176,187.228,43.892,191z"/>
<path fill="#8CA541" stroke="#020001" stroke-width="2.6527" d="M32.831,173.084c0,0-5.875-16.606,13.464-19.354
	C48.081,165.28,44.699,172.257,32.831,173.084z"/>
<path fill="#8CA541" stroke="#020001" stroke-width="2.6527" d="M26.177,153.429c0,0-3.645-17.234,15.887-17.419
	C42.317,147.693,38.05,154.17,26.177,153.429z"/>
<path fill="#8CA541" stroke="#020001" stroke-width="2.6527" d="M23.421,132.672c0,0,0.62-15.648,17.492-11.543
	C38.58,131.253,33.491,135.899,23.421,132.672z"/>
<path fill="#8CA541" stroke="#020001" stroke-width="2.6527" d="M24.545,112.913c0,0,2.746-15.417,18.901-9.053
	C39.757,113.572,34.082,117.481,24.545,112.913z"/>
<path fill="#8CA541" stroke="#020001" stroke-width="2.6527" d="M28.33,93.666c0,0,5.637-14.608,20.282-5.281
	C43.136,97.217,36.821,99.969,28.33,93.666z"/>
<path fill="#8CA541" stroke="#020001" stroke-width="2.6527" d="M36.154,75.498c0,0,7.865-13.539,20.859-2.024
	C50.22,81.332,43.548,83.06,36.154,75.498z"/>
<path fill="#8CA541" stroke="#020001" stroke-width="2.6527" d="M47.692,59.098c0,0,8.937-12.855,20.955-0.325
	C61.238,66.055,54.447,67.235,47.692,59.098z"/>
<path fill="#8CA541" stroke="#020001" stroke-width="2.6527" d="M61.663,44.532c0,0,10.304-9.612,18.496,3.695
	C72.256,53.225,66.06,52.973,61.663,44.532z"/>
<path fill="#8CA541" stroke="#020001" stroke-width="2.6527" d="M78.047,33.275c0,0,10.304-9.612,18.496,3.697
	C88.641,41.969,82.443,41.718,78.047,33.275z"/>
<path fill="#8CA541" stroke="#020001" stroke-width="2.6527" d="M93.504,24.999c0,0,12.042-7.318,17.36,7.375
	C102.113,35.66,96.096,34.158,93.504,24.999z"/>
<path fill="#8CA541" stroke="#020001" stroke-width="2.6527" d="M94.361,23.023c0,0-4.541-13.339,10.955-15.354
	C106.633,16.926,103.863,22.473,94.361,23.023z"/>
<path fill="#8CA541" stroke="#020001" stroke-width="2.6527" d="M61.728,41.737c0,0-10.337-9.574,2.336-18.716
	C69.625,30.537,69.827,36.736,61.728,41.737z"/>
<path fill="#8CA541" stroke="#020001" stroke-width="2.6527" d="M47.342,55.735c0,0-13.29-8.28-1.377-20.912
	C53.609,41.856,55.129,48.578,47.342,55.735z"/>
<path fill="#8CA541" stroke="#020001" stroke-width="2.6527" d="M35.327,72.852c0,0-14.486-5.942-4.853-20.387
	C39.185,58.122,41.808,64.495,35.327,72.852z"/>
<path fill="#8CA541" stroke="#020001" stroke-width="2.6527" d="M26.729,91.316c0,0-14.931-4.708-6.541-19.908
	C29.344,76.317,32.49,82.45,26.729,91.316z"/>
<path fill="#8CA541" stroke="#020001" stroke-width="2.6527" d="M22.113,109.798c0,0-15.646-0.582-11.584-17.465
	C20.658,94.642,25.316,99.719,22.113,109.798z"/>
<path fill="#8CA541" stroke="#020001" stroke-width="2.6527" d="M20.98,131.58c0,0-15.479,2.347-14.64-14.996
	C16.721,116.962,22.245,121.08,20.98,131.58z"/>
<path fill="#8CA541" stroke="#020001" stroke-width="2.6527" d="M24.014,154.551c0,0-18.84,5.305-20.474-16.34
	C16.477,137.075,23.965,141.335,24.014,154.551z"/>
<path fill="#8CA541" stroke="#020001" stroke-width="2.6527" d="M30.731,173.198c0,0-17.126,9.476-23.672-11.217
	C19.392,157.913,27.656,160.342,30.731,173.198z"/>
<path fill="#8CA541" stroke="#020001" stroke-width="2.6527" d="M40.458,190.424c0,0-15.205,12.321-25.268-6.906
	C26.62,177.359,35.182,178.302,40.458,190.424z"/>
<path fill="#8CA541" stroke="#020001" stroke-width="2.6527" d="M53.819,205.513c0,0-11.988,15.473-26.179-0.949
	C37.361,195.953,45.913,194.921,53.819,205.513z"/>
<path fill="#8CA541" stroke="#020001" stroke-width="2.6527" d="M69.846,218.321c0,0-9.826,19.16-28.497,4.279
	C50.116,211.321,59.151,208.469,69.846,218.321z"/>
<path fill="#8CA541" stroke="#020001" stroke-width="2.6527" d="M88.383,228.989c0,0-7.602,20.146-27.832,7.465
	C67.989,224.258,76.646,220.407,88.383,228.989z"/>
<path fill="#8CA541" stroke="#020001" stroke-width="2.6527" d="M107.044,235.118c0,0-0.007,21.531-23.41,16.804
	C86.292,237.886,93.033,231.226,107.044,235.118z"/>
<path fill="none" stroke="#020001" stroke-width="2.6527" d="M123.052,237.062c42.451,2.484,111.217-36.491,109.728-111.217
	c-1.577-79.207-71.993-101.534-75.219-102.774"/>
<path fill="#8CA541" stroke="#020001" stroke-width="2.6527" d="M142.67,234.445c0,0,18.854-5.252,9.013-24.595
	C140.039,215.595,135.848,223.123,142.67,234.445z"/>
<path fill="#8CA541" stroke="#020001" stroke-width="2.6527" d="M161.805,228.626c0,0,18.03-7.614,5.801-25.545
	C156.788,210.265,153.595,218.265,161.805,228.626z"/>
<path fill="#8CA541" stroke="#020001" stroke-width="2.6527" d="M180.031,219.64c0,0,16.754-10.117,2.084-26.11
	C172.438,202.186,170.422,210.564,180.031,219.64z"/>
<path fill="#8CA541" stroke="#020001" stroke-width="2.6527" d="M197.601,205.765c0,0,12.869-14.744-5.981-25.502
	C185.046,191.462,185.681,200.052,197.601,205.765z"/>
<path fill="#8CA541" stroke="#020001" stroke-width="2.6527" d="M211.118,191c0,0,9.846-14.604-8.19-22.105
	C198.308,179.627,199.833,187.228,211.118,191z"/>
<path fill="#8CA541" stroke="#020001" stroke-width="2.6527" d="M222.178,173.084c0,0,5.874-16.606-13.464-19.354
	C206.929,165.28,210.311,172.257,222.178,173.084z"/>
<path fill="#8CA541" stroke="#020001" stroke-width="2.6527" d="M228.833,153.429c0,0,3.645-17.234-15.889-17.419
	C212.691,147.693,216.959,154.17,228.833,153.429z"/>
<path fill="#8CA541" stroke="#020001" stroke-width="2.6527" d="M231.588,132.672c0,0-0.62-15.648-17.491-11.543
	C216.429,131.253,221.519,135.899,231.588,132.672z"/>
<path fill="#8CA541" stroke="#020001" stroke-width="2.6527" d="M230.463,112.913c0,0-2.745-15.417-18.9-9.053
	C215.252,113.572,220.927,117.481,230.463,112.913z"/>
<path fill="#8CA541" stroke="#020001" stroke-width="2.6527" d="M226.679,93.666c0,0-5.637-14.608-20.28-5.281
	C211.872,97.217,218.188,99.969,226.679,93.666z"/>
<path fill="#8CA541" stroke="#020001" stroke-width="2.6527" d="M218.854,75.498c0,0-7.864-13.539-20.858-2.024
	C204.79,81.332,211.461,83.06,218.854,75.498z"/>
<path fill="#8CA541" stroke="#020001" stroke-width="2.6527" d="M207.316,59.098c0,0-8.938-12.855-20.954-0.325
	C193.771,66.055,200.561,67.235,207.316,59.098z"/>
<path fill="#8CA541" stroke="#020001" stroke-width="2.6527" d="M193.346,44.532c0,0-10.304-9.612-18.496,3.695
	C182.752,53.225,188.949,52.973,193.346,44.532z"/>
<path fill="#8CA541" stroke="#020001" stroke-width="2.6527" d="M176.962,33.275c0,0-10.304-9.612-18.496,3.697
	C166.367,41.969,172.564,41.718,176.962,33.275z"/>
<path fill="#8CA541" stroke="#020001" stroke-width="2.6527" d="M161.506,24.999c0,0-12.043-7.318-17.362,7.375
	C152.896,35.66,158.912,34.158,161.506,24.999z"/>
<path fill="#8CA541" stroke="#020001" stroke-width="2.6527" d="M160.647,23.023c0,0,4.542-13.339-10.954-15.354
	C148.376,16.926,151.146,22.473,160.647,23.023z"/>
<path fill="#8CA541" stroke="#020001" stroke-width="2.6527" d="M193.281,41.737c0,0,10.336-9.574-2.337-18.716
	C185.383,30.537,185.183,36.736,193.281,41.737z"/>
<path fill="#8CA541" stroke="#020001" stroke-width="2.6527" d="M207.667,55.735c0,0,13.29-8.28,1.376-20.912
	C201.398,41.856,199.881,48.578,207.667,55.735z"/>
<path fill="#8CA541" stroke="#020001" stroke-width="2.6527" d="M219.682,72.852c0,0,14.486-5.942,4.854-20.387
	C215.824,58.122,213.199,64.495,219.682,72.852z"/>
<path fill="#8CA541" stroke="#020001" stroke-width="2.6527" d="M228.279,91.316c0,0,14.932-4.708,6.541-19.908
	C225.665,76.317,222.519,82.449,228.279,91.316z"/>
<path fill="#8CA541" stroke="#020001" stroke-width="2.6527" d="M232.896,109.798c0,0,15.646-0.582,11.585-17.465
	C234.352,94.642,229.692,99.719,232.896,109.798z"/>
<path fill="#8CA541" stroke="#020001" stroke-width="2.6527" d="M234.029,131.58c0,0,15.479,2.347,14.64-14.996
	C238.288,116.962,232.764,121.08,234.029,131.58z"/>
<path fill="#8CA541" stroke="#020001" stroke-width="2.6527" d="M230.995,154.551c0,0,18.839,5.305,20.473-16.34
	C238.533,137.075,231.045,141.335,230.995,154.551z"/>
<path fill="#8CA541" stroke="#020001" stroke-width="2.6527" d="M224.278,173.198c0,0,17.126,9.476,23.672-11.217
	C235.618,157.913,227.354,160.342,224.278,173.198z"/>
<path fill="#8CA541" stroke="#020001" stroke-width="2.6527" d="M214.55,190.424c0,0,15.204,12.321,25.27-6.906
	C228.39,177.359,219.826,178.302,214.55,190.424z"/>
<path fill="#8CA541" stroke="#020001" stroke-width="2.6527" d="M201.19,205.513c0,0,11.988,15.473,26.179-0.949
	C217.647,195.953,209.096,194.921,201.19,205.513z"/>
<path fill="#8CA541" stroke="#020001" stroke-width="2.6527" d="M185.163,218.321c0,0,9.826,19.16,28.497,4.279
	C204.895,211.321,195.857,208.469,185.163,218.321z"/>
<path fill="#8CA541" stroke="#020001" stroke-width="2.6527" d="M166.626,228.989c0,0,7.602,20.146,27.832,7.465
	C187.02,224.258,178.362,220.407,166.626,228.989z"/>
<path fill="#8CA541" stroke="#020001" stroke-width="2.6527" d="M147.966,235.118c0,0,0.006,21.531,23.409,16.804
	C168.718,237.886,161.976,231.226,147.966,235.118z"/>
<g>
	<path fill="#020001" d="M60.871,5.638c12.931,0,36.998,23.786,43.679,30.656h48.17c6.68-6.869,30.748-30.655,43.679-30.655
		c0.882,0,1.712,0.11,2.481,0.345c13.666,4.159,4.639,39.452,0.271,69.402c0.006,0.303,0.023,0.604,0.023,0.908v19.662v80.979
		c0.048-0.001,0.095-0.001,0.142-0.001c3.11,0,3.831,2.026,3.901,3.181c0.082,1.348,0.92,6.985,1.375,9.199
		c0.309,1.504,0.625,3.652-0.707,8.801c-0.127,0.491-1.816,0.931-4.711,1.321v3.414c0,22.092-17.908,40-40,40h-10.868
		c-3.473-9.179-10.508-26.179-18.473-26.179s-16.667,19.667-20.529,26.179H98.437c-22.092,0-40-17.908-40-40v-3.293
		c-3.479-0.42-5.516-0.9-5.657-1.442c-1.333-5.148-1.016-7.297-0.707-8.801c0.454-2.214,1.292-7.852,1.374-9.199
		c0.07-1.154,0.792-3.179,3.902-3.178c0.334,0,0.696,0.022,1.087,0.073V95.956V77.249c-0.016,0.004-0.031,0.01-0.047,0.014
		c-4.247-30.333-13.953-67.033,0-71.28C59.159,5.749,59.989,5.638,60.871,5.638 M194.74,61.142c1.031,0,9.301-42.424,4.158-45.811
		c-1.341-0.883-3.026-1.538-5.251-1.538c-6.408,0-17.286,5.437-37.249,26.53c-0.35,0.368,10.783,3.045,20.807,8.754
		c10.021,5.708,16.617,11.163,17.506,12.052C194.72,61.137,194.729,61.142,194.74,61.142 M62.988,61.142
		c0.01,0,0.021-0.005,0.029-0.014c0.889-0.889,7.485-6.344,17.508-12.052c10.021-5.709,21.154-8.386,20.805-8.754
		c-19.964-21.095-30.84-26.53-37.247-26.53c-2.224,0-3.911,0.655-5.251,1.538C53.688,18.718,61.958,61.142,62.988,61.142
		 M138.486,121.36c-7.586,0-9.121-7.807-9.133-7.86h-1.373c-0.012,0.054-1.549,7.86-9.134,7.86c-5.456,0-13.019-0.658-19.41-9.768
		c-3.663-5.218-4.814-5.944-5.791-5.944c-0.377,0-0.728,0.108-1.187,0.108c-1.648,0-5.971,4.834-6.672,7.865
		c-0.634,2.744-1.701,7.232,4.77,12.561c6.47,5.328,11.671,15.098,14.969,18.143c3.119,2.879,19.056,3.942,22.068,3.942
		c0.173,0,0.304-0.004,0.387-0.011c0.311-0.025,0.531-1.893,0.687-4.844c0.155,2.951,0.376,4.818,0.687,4.844
		c0.083,0.007,0.213,0.011,0.387,0.011c3.014,0,18.947-1.063,22.066-3.942c3.299-3.045,8.5-12.814,14.969-18.143
		c6.471-5.328,5.404-9.816,4.77-12.561c-0.701-3.031-5.023-7.865-6.672-7.865c-0.459,0-0.81-0.108-1.187-0.108
		c-0.977,0-2.128,0.727-5.79,5.944C151.504,120.702,143.943,121.36,138.486,121.36 M60.871,1.638c-1.29,0-2.516,0.174-3.646,0.518
		C46.838,5.317,47.067,19.712,47.143,24.442c0.16,10.009,2.231,22.328,4.423,35.37c1.005,5.981,2.045,12.167,2.863,18.005
		l0.008,0.059v18.08v77.427c-3.197,1.062-4.821,3.854-4.982,6.488c-0.067,1.102-0.869,6.538-1.3,8.64
		c-0.458,2.229-0.683,5.059,0.753,10.606c0.611,2.354,2.565,3.312,5.53,3.892c0.086,24.188,19.791,43.842,44,43.842h10.869h2.278
		l1.162-1.96c0.75-1.264,1.628-2.913,2.645-4.822c2.211-4.151,4.962-9.318,7.927-13.434c4.175-5.796,6.289-5.963,6.516-5.963
		c0.969,0,6.235,1.138,14.731,23.594l0.978,2.585h2.763h10.868c24.262,0,44-19.738,44-44v-0.044c2.164-0.536,4.019-1.505,4.584-3.69
		c1.436-5.549,1.21-8.376,0.752-10.605c-0.432-2.103-1.233-7.537-1.301-8.639c-0.144-2.361-1.462-4.85-4.035-6.106v-77.81V76.293
		c0-0.227-0.007-0.451-0.015-0.677c0.758-5.162,1.666-10.566,2.545-15.797c2.192-13.043,4.264-25.364,4.423-35.374
		c0.075-4.731,0.305-19.128-10.083-22.29c-1.13-0.344-2.356-0.518-3.646-0.518c-6.543,0-15.273,4.459-26.689,13.634
		c-7.659,6.155-14.613,12.91-18.67,17.021h-44.809c-4.059-4.113-11.015-10.87-18.671-17.021C76.144,6.098,67.414,1.638,60.871,1.638
		L60.871,1.638z M163.553,38.679c16.957-17.128,25.695-20.886,30.095-20.886c0.947,0,1.764,0.183,2.522,0.57
		c0.326,1.183,1.08,5.862-1.002,20.625c-0.828,5.869-1.85,11.409-2.661,15.245c-3.236-2.391-7.813-5.494-13.322-8.632
		C173.582,42.409,167.773,40.163,163.553,38.679L163.553,38.679z M61.56,18.363c0.759-0.387,1.575-0.57,2.522-0.57
		c4.398,0,13.136,3.758,30.093,20.886c-4.22,1.484-10.028,3.73-15.63,6.922c-5.51,3.138-10.086,6.241-13.323,8.631
		c-0.812-3.835-1.833-9.375-2.661-15.243C60.479,24.224,61.233,19.545,61.56,18.363L61.56,18.363z M108.196,141.346
		c-0.995-0.938-2.531-3.1-4.156-5.386c-2.945-4.144-6.61-9.3-10.941-12.866c-4.533-3.732-3.969-6.177-3.423-8.54
		c0.282-1.22,2.199-3.704,3.397-4.693c0.522,0.565,1.463,1.713,3.089,4.029c8.047,11.47,18.304,11.47,22.684,11.47
		c4.546,0,7.72-1.984,9.818-4.458c2.097,2.471,5.271,4.458,9.822,4.458c4.379,0,14.636,0,22.685-11.47
		c1.625-2.316,2.565-3.464,3.088-4.029c1.197,0.989,3.113,3.47,3.389,4.662c0.554,2.394,1.119,4.838-3.415,8.571
		c-4.329,3.566-7.994,8.721-10.938,12.863c-1.626,2.287-3.163,4.449-4.158,5.389c-1.859,1.285-10.694,2.457-16.419,2.812
		c-0.019-0.288-0.037-0.605-0.055-0.955h-7.989c-0.018,0.35-0.037,0.667-0.055,0.955
		C118.891,143.803,110.055,142.631,108.196,141.346L108.196,141.346z"/>
</g>
<g>
	<path fill="#020001" d="M60.871,5.638c12.931,0,36.998,23.786,43.679,30.656h48.17c6.68-6.869,30.748-30.655,43.679-30.655
		c0.882,0,1.712,0.11,2.481,0.345c13.666,4.159,4.639,39.452,0.271,69.402c0.006,0.303,0.023,0.604,0.023,0.908v19.662v80.979
		c0.048-0.001,0.095-0.001,0.142-0.001c3.11,0,3.831,2.026,3.901,3.181c0.082,1.348,0.92,6.985,1.375,9.199
		c0.309,1.504,0.625,3.652-0.707,8.801c-0.127,0.491-1.816,0.931-4.711,1.321v3.414c0,22.092-17.908,40-40,40h-10.868
		c-4.463,5.896-11.537,9.707-19.501,9.707s-15.038-3.812-19.5-9.707H98.437c-22.092,0-40-17.908-40-40v-3.293
		c-3.479-0.42-5.516-0.9-5.657-1.442c-1.333-5.148-1.016-7.297-0.707-8.801c0.454-2.214,1.292-7.852,1.374-9.199
		c0.07-1.154,0.792-3.179,3.902-3.178c0.334,0,0.696,0.022,1.087,0.073V95.956V77.249c-0.016,0.004-0.031,0.01-0.047,0.014
		c-4.247-30.333-13.953-67.033,0-71.28C59.159,5.749,59.989,5.638,60.871,5.638 M194.74,61.142c1.031,0,9.301-42.424,4.158-45.811
		c-1.341-0.883-3.026-1.538-5.251-1.538c-6.408,0-17.286,5.437-37.249,26.53c-0.35,0.368,10.783,3.045,20.807,8.754
		c10.021,5.708,16.617,11.163,17.506,12.052C194.72,61.137,194.729,61.142,194.74,61.142 M62.988,61.142
		c0.01,0,0.021-0.005,0.029-0.014c0.889-0.889,7.485-6.344,17.508-12.052c10.021-5.709,21.154-8.386,20.805-8.754
		c-19.964-21.095-30.84-26.53-37.247-26.53c-2.224,0-3.911,0.655-5.251,1.538C53.688,18.718,61.958,61.142,62.988,61.142
		 M138.486,121.36c-7.586,0-9.121-7.807-9.133-7.86h-1.373c-0.012,0.054-1.549,7.86-9.134,7.86c-5.456,0-13.019-0.658-19.41-9.768
		c-3.663-5.218-4.814-5.944-5.791-5.944c-0.377,0-0.728,0.108-1.187,0.108c-1.648,0-5.971,4.834-6.672,7.865
		c-0.634,2.744-1.701,7.232,4.77,12.561c6.47,5.328,11.671,15.098,14.969,18.143c3.119,2.879,19.055,3.942,22.068,3.942
		c0.173,0,0.304-0.004,0.387-0.011c0.311-0.025,0.531-1.893,0.687-4.844c0.155,2.951,0.376,4.818,0.687,4.844
		c0.083,0.007,0.214,0.011,0.387,0.011c3.014,0,18.947-1.063,22.066-3.942c3.299-3.045,8.5-12.814,14.969-18.143
		c6.471-5.328,5.404-9.816,4.77-12.561c-0.701-3.031-5.023-7.865-6.672-7.865c-0.459,0-0.81-0.108-1.187-0.108
		c-0.977,0-2.128,0.727-5.79,5.944C151.504,120.702,143.943,121.36,138.486,121.36 M60.871,3.638L60.871,3.638
		c-1.092,0-2.123,0.145-3.063,0.431c-12.924,3.934-8.72,28.938-4.27,55.412c1.008,5.995,2.05,12.194,2.872,18.059l0.027,0.196v18.22
		v79.031c-3.247,0.367-4.845,2.696-4.986,5.006c-0.072,1.179-0.884,6.709-1.337,8.92c-0.381,1.857-0.671,4.292,0.73,9.703
		c0.373,1.436,1.692,2.116,5.593,2.693v1.541c0,23.159,18.841,42,42,42h9.898c5.049,6.183,12.453,9.707,20.472,9.707
		c8.018,0,15.423-3.524,20.472-9.707h9.897c23.159,0,42-18.841,42-42v-1.691c2.82-0.48,4.275-1.103,4.647-2.544
		c1.4-5.411,1.11-7.846,0.729-9.703c-0.454-2.21-1.266-7.739-1.338-8.918c-0.126-2.075-1.426-4.165-4.039-4.837V95.956V76.293
		c0-0.206-0.007-0.411-0.014-0.616c-0.002-0.058-0.004-0.114-0.006-0.172c0.766-5.237,1.687-10.716,2.578-16.017
		c4.45-26.477,8.653-51.485-4.271-55.418c-0.94-0.287-1.971-0.432-3.063-0.432c-13.003,0-35.027,20.957-44.521,30.655h-46.485
		C95.897,24.595,73.869,3.638,60.871,3.638L60.871,3.638z M159.909,39.544c15.229-15.765,26.572-23.751,33.738-23.752
		c1.538,0,2.88,0.385,4.102,1.176c0.212,0.277,2.022,3.258-0.501,21.583c-1.094,7.941-2.562,15.424-3.473,19.167
		c-3.038-2.404-8.58-6.394-15.58-10.381C171.264,43.391,163.956,40.905,159.909,39.544L159.909,39.544z M59.98,16.969
		c1.222-0.791,2.564-1.176,4.102-1.176c7.164,0,18.508,7.989,33.737,23.752c-4.047,1.361-11.354,3.846-18.284,7.794
		c-7.001,3.987-12.544,7.977-15.583,10.38c-0.91-3.744-2.378-11.227-3.471-19.167C57.958,20.227,59.769,17.246,59.98,16.969
		L59.98,16.969z M92.625,107.753c0.308-0.01,0.567-0.047,0.765-0.074c0.065-0.01,0.149-0.021,0.205-0.027
		c0.332,0.17,1.349,1.022,4.204,5.09c6.565,9.356,14.324,10.618,21.047,10.618c5.135,0,8.21-3.006,9.819-6.005
		c1.605,2.995,4.682,6.005,9.821,6.005c6.723,0,14.481-1.262,21.047-10.619c2.854-4.066,3.872-4.919,4.203-5.089
		c0.057,0.006,0.14,0.018,0.205,0.027c0.198,0.027,0.458,0.064,0.766,0.074c1.136,0.485,4.368,4.063,4.89,6.319
		c0.594,2.568,1.398,6.044-4.093,10.565c-4.124,3.397-7.704,8.433-10.58,12.478c-1.785,2.512-3.326,4.681-4.474,5.739
		c-2.076,1.916-14.285,3.206-19.568,3.39c-0.067-0.607-0.144-1.533-0.218-2.938h-3.994c-0.074,1.404-0.151,2.33-0.218,2.938
		c-5.284-0.184-17.494-1.474-19.57-3.39c-1.146-1.059-2.687-3.226-4.471-5.736c-2.877-4.046-6.457-9.083-10.583-12.48
		c-5.489-4.52-4.686-7.996-4.1-10.534C88.257,111.818,91.489,108.239,92.625,107.753L92.625,107.753z"/>
</g>
<path fill="#E06D00" d="M58.832,15.331c-5.196,3.422,3.298,46.685,4.187,45.797c0.888-0.889,7.485-6.344,17.507-12.052
	c10.022-5.709,21.155-8.386,20.806-8.754C74.436,11.905,64.033,11.905,58.832,15.331z"/>
<path fill="#D35C00" d="M87.501,49.669c0,0-0.667-15.333-12.667-26.333c-8.726-7.999-15.016-8-17.675-6.667s1.277-5,1.277-5h8.731
	l8.333,2.124l15.943,13.876l15.057,15.667L87.501,49.669z"/>
<path fill="#E06D00" d="M198.898,15.331c-5.201-3.425-15.605-3.426-42.5,24.992c-0.35,0.368,10.783,3.045,20.807,8.754
	c10.021,5.708,16.617,11.163,17.506,12.052S204.094,18.752,198.898,15.331z"/>
<path fill="#D35C00" d="M169.307,49.669c0,0,0.667-15.333,12.667-26.333c8.726-7.999,15.017-8,17.675-6.667
	c2.658,1.334-1.277-5-1.277-5h-8.73l-8.334,2.124l-15.943,13.876l-15.057,15.667L169.307,49.669z"/>
<path fill="#FFA725" d="M198.881,5.983c-12.049-3.668-39.025,22.973-46.16,30.311h-48.17C97.414,28.956,70.439,2.315,58.39,5.982
	c-13.953,4.247-4.247,40.947,0,71.28c0.016-0.004,0.032-0.01,0.047-0.014v18.707c5.493-3.584,13.159-7.197,22.189-6.574
	c17.592,1.213,19.109,10.01,19.109,10.01l1.82-0.607c0,0,1.202-21.293,27.251-21.521c26.049,0.229,27.25,21.521,27.25,21.521
	l1.82,0.607c0,0,1.518-8.797,19.109-10.01c9.029-0.623,16.695,2.99,22.189,6.574V76.293c0-0.305-0.018-0.605-0.023-0.908
	C203.52,45.435,212.547,10.142,198.881,5.983z M80.525,49.076c-10.022,5.708-16.619,11.163-17.507,12.052
	c-0.888,0.888-9.382-42.375-4.187-45.797c5.201-3.425,15.604-3.426,42.499,24.992C101.68,40.69,90.547,43.367,80.525,49.076z
	 M194.711,61.128c-0.889-0.889-7.484-6.344-17.506-12.052c-10.023-5.709-21.156-8.386-20.807-8.754
	c26.895-28.417,37.299-28.417,42.5-24.992C204.094,18.752,195.6,62.017,194.711,61.128z"/>
<path fill="#FFC260" d="M62.818,7.589c5.789,1.529,11.43,4.013,26.002,16.709c4.323,3.766,12.705,11.256,15.508,14.642
	c2.672-0.514,22.064-1.062,24.16-1.153c2.098-0.091,21.616,0.639,24.287,1.153c2.803-3.386,11.186-10.876,15.508-14.642
	c14.572-12.696,20.213-15.18,26.002-16.709c3.126-0.826,6.183,0.006,8.29,0.912c-0.997-1.186-2.223-2.054-3.745-2.518
	c-12.049-3.668-39.025,22.973-46.16,30.311H104.5C97.363,28.956,70.389,2.315,58.34,5.982c-1.504,0.458-2.718,1.313-3.709,2.476
	C56.735,7.57,59.742,6.776,62.818,7.589z"/>
<path fill="#FFFFFF" d="M176.986,89.381c-17.592,1.213-19.109,10.01-19.109,10.01l-1.82-0.607c0,0-1.201-21.293-27.25-21.521
	c-26.049,0.229-27.251,21.521-27.251,21.521l-1.82,0.607c0,0-1.517-8.797-19.109-10.01c-9.031-0.623-16.697,2.99-22.189,6.574
	V202.85c0,22.092,17.908,40,40,40h60.738c22.092,0,40-17.908,40-40V95.956C193.682,92.372,186.016,88.758,176.986,89.381z
	 M166.775,126.182c-6.469,5.328-11.67,15.098-14.969,18.143s-20.932,4.059-22.454,3.932c-0.311-0.025-0.531-1.893-0.686-4.844
	c-0.155,2.951-0.375,4.818-0.686,4.844c-1.522,0.127-19.157-0.887-22.455-3.932s-8.5-12.814-14.97-18.143s-5.403-9.816-4.769-12.561
	c0.598-2.585,3.824-6.472,5.785-7.562c0.292-0.194,0.723-0.377,1.392-0.438c0.333-0.03,0.614-0.008,0.853,0.037
	c0.947,0.091,2.168,1.017,5.619,5.934c6.392,9.109,13.954,9.768,19.41,9.768c7.585,0,9.123-7.807,9.133-7.86h1.374
	c0.011,0.054,1.547,7.86,9.133,7.86c5.456,0,13.017-0.658,19.41-9.768c3.505-4.994,4.709-5.872,5.663-5.938
	c0.226-0.037,0.489-0.052,0.794-0.024c0.508,0.046,0.876,0.163,1.154,0.302c1.923,0.873,5.413,4.991,6.037,7.69
	C172.18,116.366,173.246,120.854,166.775,126.182z"/>
<path fill="#FFA725" d="M58.439,125.941c0,0,18.451,25.182,23.117,27.182s-2.667,4.333-6.333,3s-7.666-5.001-3.333,4.333
	s17,21.666,21.667,23s-35.281-0.635-35.281-0.635l0.082-30.69L58.439,125.941z"/>
<path fill="#FFA725" d="M199.154,133.147c0.092,3.594-1.91,11.863-8.995,19.017c-9.854,9.95-16.667,14.666-18,15.333
	s9.666,3.333,13.333,0s6.334-2.999,5.334-0.666s-8.334,12.999-16.667,15.666s25.295-2.867,25.295-2.867l-0.195-29.624
	L199.154,133.147z"/>
<path fill="#FFA725" d="M73.499,195.667l-15.333,1.001c0,0-2,16.333,6.667,30.666c4.692,7.76-3.667-19.332,1.333-16.666
	s-1-7.668,3.667-6.334S73.499,195.667,73.499,195.667z"/>
<path fill="#FFA725" d="M180.833,199c0,0,6.667,11.333,5.667,15s4.333-1.666,5.333-5.333s-5.667,23.333-7,25.333
	s12.333-10.334,14-23.667s0-13.666,0-13.666L180.833,199z"/>
<g>
	
		<ellipse transform="matrix(0.9781 -0.2079 0.2079 0.9781 -9.9984 22.1701)" fill="#FFFFFF" cx="100.459" cy="58.646" rx="11.164" ry="6.131"/>
	<path d="M90.821,71.191c-4.009,0.691-6.013,2.091-8.367,4.114c-1.703,1.463-1.408,3.621,0.267,3.579
		c1.083-0.027,2.787-1.911,4.503-2.691c1.812-0.823,3.762-1.795,6.864-1.537c2.45,0.203,3.081,0.933,4.25,1.538
		c2.488,1.289,4.391-1.199,2.422-2.637C98.998,72.27,96.573,70.2,90.821,71.191z"/>
</g>
<g>
	
		<ellipse transform="matrix(-0.9781 -0.2079 0.2079 -0.9781 293.8055 147.234)" fill="#FFFFFF" cx="154.642" cy="58.174" rx="11.164" ry="6.13"/>
	<path d="M164.279,70.72c4.01,0.69,6.014,2.091,8.367,4.113c1.703,1.463,1.408,3.621-0.267,3.579
		c-1.083-0.027-2.786-1.911-4.503-2.691c-1.812-0.823-3.762-1.795-6.865-1.537c-2.449,0.203-3.08,0.933-4.249,1.538
		c-2.487,1.289-4.391-1.199-2.423-2.637C156.104,71.798,158.527,69.728,164.279,70.72z"/>
</g>
<g>
	<path d="M129.74,151.267c-0.21,0-0.37-0.006-0.47-0.015c-0.237-0.019-0.436-0.081-0.604-0.215
		c-0.167,0.134-0.366,0.196-0.604,0.216c-0.099,0.008-0.258,0.014-0.469,0.014c-2.16,0-19.151-0.889-22.746-4.208
		c-1.376-1.27-3.001-3.556-4.882-6.202c-2.774-3.902-6.226-8.758-10.045-11.903c-6.923-5.701-5.747-10.791-5.114-13.525
		c0.67-2.899,4.067-7.012,6.28-8.243c0.431-0.291,1.055-0.493,1.788-0.56c0.137-0.013,0.267-0.018,0.391-0.018
		c0.249,0,0.497,0.022,0.737,0.068c1.249,0.115,2.597,1.134,6.252,6.342c5.761,8.21,12.34,9.342,18.592,9.342
		c6.35,0,7.946-6.132,8.134-6.97v-7.271c-8.903-0.616-15.743-6.021-15.743-12.599c0-6.987,7.818-12.672,17.429-12.672
		c9.61,0,17.428,5.685,17.428,12.672c0,6.578-6.839,11.982-15.742,12.599v7.271c0.194,0.861,1.796,6.971,8.134,6.971
		c6.251,0,12.83-1.132,18.591-9.342c3.711-5.289,5.024-6.266,6.412-6.362c0.102-0.021,0.316-0.04,0.555-0.04
		c0.126,0,0.259,0.005,0.398,0.018c0.577,0.053,1.071,0.184,1.511,0.402c2.146,0.974,5.876,5.379,6.565,8.36
		c0.64,2.765,1.817,7.855-5.108,13.558c-3.817,3.145-7.269,8-10.042,11.9c-1.882,2.648-3.508,4.935-4.884,6.205
		C148.889,150.378,131.902,151.267,129.74,151.267L129.74,151.267z"/>
	<path fill="#050002" d="M128.667,83.848c9.073,0,16.428,5.227,16.428,11.672c0,6.281-6.989,11.389-15.742,11.646v4.666v3.662
		l0.001,0.005c0.011,0.054,1.547,7.86,9.133,7.86c5.456,0,13.017-0.658,19.41-9.768c3.505-4.994,4.709-5.872,5.663-5.938
		c0.146-0.024,0.307-0.038,0.485-0.038c0.098,0,0.2,0.004,0.309,0.014c0.508,0.046,0.876,0.163,1.154,0.302
		c1.923,0.873,5.413,4.991,6.037,7.69c0.635,2.744,1.701,7.232-4.77,12.561c-6.469,5.328-11.67,15.098-14.969,18.143
		c-3.119,2.879-19.054,3.942-22.066,3.942c-0.173,0-0.304-0.004-0.387-0.011c-0.311-0.025-0.531-1.893-0.686-4.844
		c-0.155,2.951-0.375,4.818-0.686,4.844c-0.083,0.007-0.213,0.011-0.387,0.011c-3.014,0-18.949-1.063-22.068-3.942
		c-3.298-3.045-8.5-12.814-14.97-18.143s-5.403-9.816-4.769-12.561c0.598-2.585,3.824-6.472,5.785-7.562
		c0.292-0.194,0.723-0.377,1.392-0.438c0.105-0.01,0.205-0.014,0.3-0.014c0.206,0,0.389,0.021,0.552,0.051
		c0.947,0.091,2.168,1.017,5.619,5.934c6.392,9.109,13.954,9.768,19.41,9.768c7.585,0,9.123-7.807,9.133-7.86l0.001-0.005v-3.662
		v-4.666c-8.752-0.258-15.743-5.365-15.743-11.646C112.238,89.075,119.594,83.848,128.667,83.848 M128.667,81.848
		c-10.162,0-18.429,6.133-18.429,13.672c0,6.872,6.773,12.553,15.743,13.514v2.799v3.438c-0.255,1.031-1.778,6.089-7.134,6.089
		c-5.981,0-12.275-1.08-17.773-8.916c-3.502-4.989-5.092-6.541-6.972-6.766c-0.274-0.047-0.555-0.07-0.837-0.07
		c-0.152,0-0.312,0.007-0.481,0.021c-0.867,0.079-1.624,0.32-2.249,0.719c-2.434,1.396-5.974,5.7-6.696,8.823
		c-0.688,2.977-1.956,8.46,5.446,14.555c3.716,3.061,7.126,7.856,9.865,11.71c1.914,2.692,3.567,5.018,5.02,6.358
		c4.254,3.928,23.238,4.473,23.424,4.473c0.248,0,0.435-0.008,0.554-0.018c0.188-0.016,0.361-0.047,0.521-0.095
		c0.159,0.048,0.333,0.079,0.522,0.095c0.115,0.01,0.303,0.018,0.55,0.018c0.186,0,19.168-0.545,23.423-4.473
		c1.453-1.341,3.106-3.667,5.021-6.36c2.739-3.854,6.147-8.648,9.862-11.708c7.403-6.097,6.135-11.579,5.453-14.525
		c-0.776-3.358-4.66-7.929-7.133-9.075c-0.537-0.263-1.153-0.427-1.834-0.488c-0.172-0.016-0.334-0.021-0.488-0.021
		c-0.244,0-0.485,0.017-0.721,0.051c-1.914,0.18-3.526,1.734-7.064,6.777c-5.5,7.836-11.792,8.916-17.773,8.916
		c-5.368,0-6.885-5.078-7.134-6.087v-3.44v-2.799c8.97-0.961,15.742-6.642,15.742-13.514
		C147.095,87.981,138.828,81.848,128.667,81.848L128.667,81.848z"/>
</g>
<g>
	<path fill="#FF8980" d="M128.6,163.317c-0.288-0.017-0.585-0.045-0.873-0.083c-16.04-1.545-24.379-9.005-24.839-22.177
		c-0.263-7.541,2.106-14.938,3.655-18.909c4.312,2.346,8.604,2.688,12.303,2.688c5.431,0,8.454-3.576,9.82-6.646
		c1.366,3.069,4.388,6.646,9.82,6.646c3.7,0,7.992-0.344,12.303-2.688c1.548,3.973,3.917,11.372,3.654,18.907
		c-0.459,13.174-8.797,20.633-24.785,22.173c-0.341,0.044-0.638,0.072-0.943,0.089l-0.058,0.005L128.6,163.317z"/>
	<path fill="#AD2545" d="M128.666,121.214c1.898,2.704,5.039,5.122,9.821,5.122c3.458,0,7.415-0.289,11.473-2.104
		c1.39,3.925,3.209,10.374,2.986,16.771c-0.435,12.474-8.098,19.255-23.43,20.731l-0.053,0.005l-0.053,0.008
		c-0.248,0.032-0.508,0.057-0.741,0.07c-0.256-0.016-0.506-0.039-0.745-0.07l-0.053-0.008l-0.053-0.005
		c-15.331-1.477-22.995-8.257-23.43-20.729c-0.223-6.401,1.596-12.85,2.986-16.772c4.058,1.815,8.014,2.104,11.473,2.104
		C123.626,126.336,126.768,123.918,128.666,121.214 M128.675,114.159c0,0-0.005,0.012-0.009,0.02
		c-0.004-0.008-0.009-0.02-0.009-0.02l-0.677,1.312c0,0-1.523,7.865-9.135,7.865c-3.713,0-8.399-0.311-13.03-3.375
		c-1.321,3.086-4.745,12.029-4.427,21.148c0.374,10.715,5.92,21.664,26.141,23.611c0.324,0.043,0.658,0.074,1.002,0.094
		c0.043,0.002,0.083,0.008,0.126,0.012c0.003,0,0.006-0.002,0.009-0.002s0.006,0.002,0.009,0.002
		c0.043-0.004,0.083-0.01,0.126-0.012c0.344-0.02,0.678-0.051,1.002-0.094c20.22-1.947,25.767-12.896,26.14-23.613
		c0.318-9.117-3.105-18.061-4.426-21.146c-4.631,3.064-9.319,3.375-13.031,3.375c-7.613,0-9.135-7.865-9.135-7.865L128.675,114.159
		L128.675,114.159z"/>
</g>
<path fill="#CC0000" d="M204.594,189.314c-0.455-2.214-1.293-7.852-1.375-9.199s-1.045-3.886-5.666-3
	c-5.896,1.13-37.758,4.737-64.439,5.045v-0.045c-1.559,0.037-3.159,0.057-4.781,0.063c-1.622-0.007-3.222-0.026-4.781-0.063v0.045
	c-26.68-0.308-58.543-3.915-64.438-5.045c-4.622-0.886-5.584,1.652-5.667,3s-0.92,6.985-1.374,9.199
	c-0.309,1.504-0.625,3.652,0.707,8.801c1.242,4.8,149.864,4.8,151.106,0C205.219,192.966,204.902,190.818,204.594,189.314z"/>
<path fill="#8E0E0E" d="M121.166,190.991c0,2.25-2.75,5.75-6,6.5s-42.75-1.75-53-2.25c-6.107-0.297-8.841-3.431-10.063-5.918
	c-0.01,0.049-0.02,0.104-0.029,0.15c-0.309,1.504-0.625,3.652,0.707,8.801c0.604,2.334,36.068,3.532,72.483,3.596l-0.848-12.389
	C124.416,189.481,121.166,188.741,121.166,190.991z"/>
<path fill="#8E0E0E" d="M135.501,190.991c0,2.25,2.75,5.75,6,6.5s42.75-1.75,53-2.25c6.107-0.297,8.841-3.431,10.063-5.918
	c0.01,0.049,0.02,0.104,0.029,0.15c0.309,1.504,0.625,3.652-0.707,8.801c-0.604,2.334-36.068,3.532-72.483,3.596l0.848-12.389
	C132.251,189.481,135.501,188.741,135.501,190.991z"/>
<path fill="#FFA725" d="M135.5,198.667c0,2.762-2.239,5-5,5h-4.333c-2.761,0-5-2.238-5-5V185c0-2.762,2.239-5,5-5h4.333
	c2.761,0,5,2.238,5,5V198.667z"/>
<path opacity="0.49" fill="#FFD960" d="M128.493,181.056c0,0-4.243-0.302-5.107,1.6s-0.929,2.886-0.929,7.379
	s-0.014,8.19,0.619,9.804s2.312,2.585,4.386,2.374s3.421,0.124,3.536-0.913s-0.261-1.905-1.472-1.719
	c-2.503,0.386-3.937,0.418-4.283-0.619s-0.799-2.658,0.18-3.681s6.537,0.617,6.882,1.597s0.346,1.9,0,2.707
	s-0.743,1.544-0.199,1.905c0.455,0.303,1.847,0.459,2.013-2.373c0.206-3.521,0-5.393,0-6.141s-1.254-1.775-1.548-1.142
	s0.25,1.852-0.671,1.967s-6.477-0.825-7.585-1.967c-0.241-0.248-0.516-4.122,0.215-4.807c1.027-0.962,7.488,1.958,7.43,2.649
	s0.23,1.037,0.691,0.979s1.127-1.439,0.967-2.477s-0.62-1.45-1.254-0.932s-7.482-1.548-6.941-3.734
	c0.256-1.033,2.4-0.91,4.349-0.749c1.284,0.106,2.88,0.403,2.88,0.979s-0.115,1.44,0.058,1.498s1.412,0.818,1.41-0.781
	C134.117,183.365,133.991,181.278,128.493,181.056z"/>
<ellipse fill="#FFFFFF" cx="130.248" cy="187.841" rx="1.441" ry="4.699"/>
<ellipse fill="#FFFFFF" cx="130.248" cy="196.292" rx="1.079" ry="1.621"/>
<ellipse fill="#FFFFFF" cx="130.248" cy="199.759" rx="0.662" ry="0.766"/>
<path fill="none" stroke="#020001" stroke-width="2.6527" d="M131.957,237.062C89.506,239.546,20.74,200.571,22.23,125.845"/>
<path fill="#8CA541" stroke="#020001" stroke-width="2.6527" d="M112.339,234.445c0,0-18.854-5.252-9.013-24.595
	C114.97,215.595,119.16,223.123,112.339,234.445z"/>
<path fill="#8CA541" stroke="#020001" stroke-width="2.6527" d="M93.204,228.626c0,0-18.03-7.614-5.8-25.545
	C98.22,210.265,101.415,218.265,93.204,228.626z"/>
<path fill="#8CA541" stroke="#020001" stroke-width="2.6527" d="M74.978,219.64c0,0-16.755-10.117-2.085-26.11
	C82.57,202.186,84.586,210.564,74.978,219.64z"/>
<path fill="#8CA541" stroke="#020001" stroke-width="2.6527" d="M57.409,205.765c0,0-12.87-14.744,5.981-25.502
	C69.963,191.462,69.329,200.052,57.409,205.765z"/>
<path fill="#8CA541" stroke="#020001" stroke-width="2.6527" d="M43.892,191c0,0-9.846-14.604,8.189-22.105
	C56.702,179.627,55.176,187.228,43.892,191z"/>
<path fill="#8CA541" stroke="#020001" stroke-width="2.6527" d="M32.831,173.084c0,0-5.875-16.606,13.464-19.354
	C48.081,165.28,44.699,172.257,32.831,173.084z"/>
<path fill="#8CA541" stroke="#020001" stroke-width="2.6527" d="M26.177,153.429c0,0-3.645-17.234,15.887-17.419
	C42.317,147.693,38.05,154.17,26.177,153.429z"/>
<path fill="#8CA541" stroke="#020001" stroke-width="2.6527" d="M23.421,132.672c0,0,0.62-15.648,17.492-11.543
	C38.58,131.253,33.491,135.899,23.421,132.672z"/>
<path fill="#8CA541" stroke="#020001" stroke-width="2.6527" d="M20.98,131.58c0,0-15.479,2.347-14.64-14.996
	C16.721,116.962,22.245,121.08,20.98,131.58z"/>
<path fill="#8CA541" stroke="#020001" stroke-width="2.6527" d="M24.014,154.551c0,0-18.84,5.305-20.474-16.34
	C16.477,137.075,23.965,141.335,24.014,154.551z"/>
<path fill="#8CA541" stroke="#020001" stroke-width="2.6527" d="M30.731,173.198c0,0-17.126,9.476-23.672-11.217
	C19.392,157.913,27.656,160.342,30.731,173.198z"/>
<path fill="#8CA541" stroke="#020001" stroke-width="2.6527" d="M40.458,190.424c0,0-15.205,12.321-25.268-6.906
	C26.62,177.359,35.182,178.302,40.458,190.424z"/>
<path fill="#8CA541" stroke="#020001" stroke-width="2.6527" d="M53.819,205.513c0,0-11.988,15.473-26.179-0.949
	C37.361,195.953,45.913,194.921,53.819,205.513z"/>
<path fill="#8CA541" stroke="#020001" stroke-width="2.6527" d="M69.846,218.321c0,0-9.826,19.16-28.497,4.279
	C50.116,211.321,59.151,208.469,69.846,218.321z"/>
<path fill="#8CA541" stroke="#020001" stroke-width="2.6527" d="M88.383,228.989c0,0-7.602,20.146-27.832,7.465
	C67.989,224.258,76.646,220.407,88.383,228.989z"/>
<path fill="#8CA541" stroke="#020001" stroke-width="2.6527" d="M107.044,235.118c0,0-0.007,21.531-23.41,16.804
	C86.292,237.886,93.033,231.226,107.044,235.118z"/>
<path fill="none" stroke="#020001" stroke-width="2.6527" d="M123.052,237.062c42.451,2.484,111.217-36.491,109.728-111.217"/>
<path fill="#8CA541" stroke="#020001" stroke-width="2.6527" d="M142.67,234.445c0,0,18.854-5.252,9.013-24.595
	C140.039,215.595,135.848,223.123,142.67,234.445z"/>
<path fill="#8CA541" stroke="#020001" stroke-width="2.6527" d="M161.805,228.626c0,0,18.03-7.614,5.801-25.545
	C156.788,210.265,153.595,218.265,161.805,228.626z"/>
<path fill="#8CA541" stroke="#020001" stroke-width="2.6527" d="M180.031,219.64c0,0,16.754-10.117,2.084-26.11
	C172.438,202.186,170.422,210.564,180.031,219.64z"/>
<path fill="#8CA541" stroke="#020001" stroke-width="2.6527" d="M197.601,205.765c0,0,12.869-14.744-5.981-25.502
	C185.046,191.462,185.681,200.052,197.601,205.765z"/>
<path fill="#8CA541" stroke="#020001" stroke-width="2.6527" d="M211.118,191c0,0,9.846-14.604-8.19-22.105
	C198.308,179.627,199.833,187.228,211.118,191z"/>
<path fill="#8CA541" stroke="#020001" stroke-width="2.6527" d="M222.178,173.084c0,0,5.874-16.606-13.464-19.354
	C206.929,165.28,210.311,172.257,222.178,173.084z"/>
<path fill="#8CA541" stroke="#020001" stroke-width="2.6527" d="M228.833,153.429c0,0,3.645-17.234-15.889-17.419
	C212.691,147.693,216.959,154.17,228.833,153.429z"/>
<path fill="#8CA541" stroke="#020001" stroke-width="2.6527" d="M231.588,132.672c0,0-0.62-15.648-17.491-11.543
	C216.429,131.253,221.519,135.899,231.588,132.672z"/>
<path fill="#8CA541" stroke="#020001" stroke-width="2.6527" d="M234.029,131.58c0,0,15.479,2.347,14.64-14.996
	C238.288,116.962,232.764,121.08,234.029,131.58z"/>
<path fill="#8CA541" stroke="#020001" stroke-width="2.6527" d="M230.995,154.551c0,0,18.839,5.305,20.473-16.34
	C238.533,137.075,231.045,141.335,230.995,154.551z"/>
<path fill="#8CA541" stroke="#020001" stroke-width="2.6527" d="M224.278,173.198c0,0,17.126,9.476,23.672-11.217
	C235.618,157.913,227.354,160.342,224.278,173.198z"/>
<path fill="#8CA541" stroke="#020001" stroke-width="2.6527" d="M214.55,190.424c0,0,15.204,12.321,25.27-6.906
	C228.39,177.359,219.826,178.302,214.55,190.424z"/>
<path fill="#8CA541" stroke="#020001" stroke-width="2.6527" d="M201.19,205.513c0,0,11.988,15.473,26.179-0.949
	C217.647,195.953,209.096,194.921,201.19,205.513z"/>
<path fill="#8CA541" stroke="#020001" stroke-width="2.6527" d="M185.163,218.321c0,0,9.826,19.16,28.497,4.279
	C204.895,211.321,195.857,208.469,185.163,218.321z"/>
<path fill="#8CA541" stroke="#020001" stroke-width="2.6527" d="M166.626,228.989c0,0,7.602,20.146,27.832,7.465
	C187.02,224.258,178.362,220.407,166.626,228.989z"/>
<path fill="#8CA541" stroke="#020001" stroke-width="2.6527" d="M147.966,235.118c0,0,0.006,21.531,23.409,16.804
	C168.718,237.886,161.976,231.226,147.966,235.118z"/>
<path fill="none" stroke="#000000" stroke-width="4" d="M132.059,203.889c-0.073-0.01-0.146-0.019-0.22-0.027
	c-0.421-0.053-0.847-0.094-1.274-0.125c-0.091-0.006-0.182-0.015-0.273-0.021c-0.492-0.029-0.986-0.049-1.485-0.049
	c-0.006,0-0.012,0-0.018,0c-0.004,0-0.009,0-0.014,0c-0.024,0-0.048,0.003-0.072,0.003c-0.495,0.002-0.986,0.022-1.474,0.053
	c-0.188,0.012-0.375,0.027-0.561,0.043c-0.348,0.03-0.694,0.068-1.038,0.113c-0.217,0.028-0.435,0.055-0.651,0.088
	c-0.405,0.064-0.808,0.138-1.206,0.222c-0.266,0.055-0.527,0.118-0.789,0.182c-0.202,0.05-0.401,0.102-0.601,0.155
	c-1.015,0.274-2.002,0.613-2.96,1.011c-0.072,0.03-0.145,0.06-0.217,0.091c-5.444,2.32-9.881,6.546-12.449,11.854
	c0.025-0.031,0.055-0.065,0.081-0.097c-1.585,3.239-2.477,6.879-2.477,10.728c0,13.5,10.944,24.444,24.445,24.444
	s24.445-10.944,24.445-24.444C153.252,215.715,144.021,205.481,132.059,203.889z"/>
<circle fill="#FFA725" cx="128.807" cy="228.113" r="24.445"/>
<path fill="#FFD960" d="M128.775,203.667c-9.69,0-18.063,5.639-22.018,13.814c3.992-4.926,11.48-11.923,21.544-11.427
	c10.736,0.529,16.688,4.225,21.042,8.854C144.995,208.149,137.41,203.667,128.775,203.667z"/>
<ellipse opacity="0.49" fill="#FFD960" cx="128.949" cy="229.184" rx="22.998" ry="21.643"/>
<ellipse fill="#FFA725" stroke="#F9DC08" stroke-width="2" cx="128.806" cy="229.185" rx="20.219" ry="18.562"/>
<path fill="#F9DC08" d="M123.41,244.926c-0.546-0.1-4.199-1.187-6.622-3.388c-3.417-3.104-5.337-6.09-5.492-10.393
	s2.941-8.306,2.793-4.699c-0.383,9.353,2.437,10.714,3.653,9.016c3.812-5.322,1.788-15.914,0.448-14.631
	c-2.634,2.523-4.146,2.4-3.531,0.169c0.619-2.247,1.458-3.519,5.824-5.527c4.855-2.234,9.666-3.343,14.132-1.648
	s6.895,3.083,5.734,4.768c-1.095,1.589-5.151-3.76-11.401-1.908c-4.305,1.275-6.048,3.867-6.492,6.066
	c-0.554,2.75-2.102,11.154,0,13.665c1.971,2.354,4.423,3.924,8.453,2.659c3.861-1.212,6.377-5.172,5.556-8.209
	c-1.121-4.148-4.817-4.616-6.88-3.363s-2.31,3.468-1.252,4.709s2.576,0.673,1.914,1.85c-0.675,1.199-2.135,0.274-2.987-0.223
	c-1.445-0.842-2.537-4.153-1.221-6.168c1.204-1.843,3.712-3.912,6.559-3.251c2.063,0.479,4.036,1.178,5.325,3.195
	c1.365,2.136,1.656,4.222,0.579,6.686s-1.385,3.696-2.31,5.082s-0.937,2.697,1.22,1.619s3.628-1.94,4.632-4.237
	c1.597-3.656,1.54-6.679,1.54-8.652s2.661-2.801,2.916,0s-1.069,7.78-2.522,9.705c-1.513,2.003-3.706,5.452-10.371,7.165
	C128.333,246.337,124.715,245.08,123.41,244.926"/>
<g>
	<path stroke="#FFFFFF" stroke-width="2" d="M114.616,218.447c-0.065-0.261-0.229-0.554-0.392-0.75l-1.076-1.108
		c-0.098-0.131-0.195-0.229-0.195-0.358c0-0.099,0.098-0.131,0.261-0.131h5.152c0.131,0,0.229,0.032,0.229,0.131
		c0,0.13-0.065,0.228-0.163,0.326l-1.011,0.88c-0.261,0.229-0.424,0.489-0.359,0.75l1.63,6.098h0.065l1.826-6.098
		c0.065-0.261-0.098-0.521-0.392-0.75l-1.076-0.88c-0.13-0.099-0.195-0.196-0.195-0.326c0-0.099,0.163-0.131,0.293-0.131h4.728
		c0.13,0,0.261,0.032,0.261,0.131c0,0.13-0.098,0.261-0.195,0.358l-1.109,1.108c-0.163,0.163-0.293,0.489-0.359,0.75l-2.837,9.489
		l2.674,9.913c0.098,0.358,0.294,0.685,0.457,0.88l1.109,1.207c0.163,0.163,0.326,0.358,0.326,0.488c0,0.099-0.13,0.131-0.261,0.131
		h-5.217c-0.131,0-0.229-0.065-0.229-0.163c0-0.131,0.13-0.293,0.293-0.456l1.011-1.076c0.13-0.163,0.163-0.424,0.098-0.652
		l-1.565-5.837h-0.065l-1.565,5.739c-0.098,0.326-0.065,0.587,0.098,0.75l1.076,1.076c0.163,0.163,0.293,0.325,0.293,0.456
		c0,0.098-0.098,0.163-0.228,0.163h-4.859c-0.163,0-0.261-0.032-0.261-0.131c0-0.13,0.13-0.325,0.293-0.521l1.076-1.108
		c0.196-0.229,0.424-0.587,0.521-0.945l2.642-9.098L114.616,218.447z"/>
	<path stroke="#FFFFFF" stroke-width="2" d="M126.288,218.447c0-0.392-0.065-0.685-0.293-0.913l-0.978-0.945
		c-0.065-0.098-0.229-0.195-0.229-0.294c0-0.098,0.065-0.195,0.196-0.195h4.304c3.293,0,5.25,3.163,5.25,11.608
		c0,10.63-1.957,12.848-5.25,12.848h-4.304c-0.13,0-0.196-0.098-0.196-0.195c0-0.099,0.163-0.163,0.229-0.294l0.978-0.945
		c0.229-0.229,0.293-0.521,0.293-0.913V218.447z M128.799,238.924h0.587c1.271,0,2.478-1.238,2.478-11.217
		c0-8.739-1.207-9.978-2.478-9.978h-0.587V238.924z"/>
	<path stroke="#FFFFFF" stroke-width="2" d="M142.33,230.153c0-0.326-0.13-0.521-0.359-0.717l-0.913-0.783
		c-0.13-0.13-0.163-0.195-0.163-0.325c0-0.131,0.098-0.196,0.261-0.196h4.826c0.13,0,0.229,0.065,0.229,0.196
		c0,0.13-0.065,0.195-0.163,0.325l-0.946,0.783c-0.228,0.163-0.326,0.391-0.326,0.717v10.239c0,0.098-0.065,0.163-0.163,0.163
		c-0.131,0-0.261-0.065-0.326-0.131l-0.979-0.88c-0.13-0.098-0.195-0.131-0.326-0.131c-0.098,0-0.195,0.033-0.326,0.131
		c-0.685,0.619-1.337,1.011-2.055,1.011c-4.076,0-4.239-7.435-4.239-12.88c0-4.011,0.163-11.576,4.174-11.576
		c1.076,0,1.728,0.489,2.054,0.75c0.13,0.098,0.359,0.195,0.489,0.195c0.163,0,0.489-0.228,0.815-0.521
		c0.293-0.261,0.489-0.424,0.652-0.424s0.228,0.229,0.228,0.555v7.825c0,0.131-0.065,0.229-0.163,0.229
		c-0.131,0-0.229-0.13-0.293-0.326c-0.685-2.445-2.087-6.651-3.522-6.651c-1.37,0-1.761,3.098-1.761,9.978
		c0,9.392,0.391,11.217,1.565,11.217c1.011,0,1.729-1.238,1.729-4.336V230.153z"/>
</g>
<polygon fill="#AD2545" points="125.966,120.176 127.416,119.333 129.8,119.213 131.152,120.33 132.416,121.918 132.416,146.083 
	130.916,148.083 130.916,123.833 130.242,122.838 129.666,123.583 129.666,151.583 126.666,151.583 124.416,147.333 
	126.666,144.083 124.758,141.413 126.916,138.333 124.666,135.583 126.666,132.083 124.666,129.083 126.166,125.833 
	124.217,123.592 125.152,122.511 "/>
<g>
	<path d="M114.616,218.447c-0.065-0.261-0.229-0.554-0.392-0.75l-1.076-1.108c-0.098-0.131-0.195-0.229-0.195-0.358
		c0-0.099,0.098-0.131,0.261-0.131h5.152c0.131,0,0.229,0.032,0.229,0.131c0,0.13-0.065,0.228-0.163,0.326l-1.011,0.88
		c-0.261,0.229-0.424,0.489-0.359,0.75l1.63,6.098h0.065l1.826-6.098c0.065-0.261-0.098-0.521-0.392-0.75l-1.076-0.88
		c-0.13-0.099-0.195-0.196-0.195-0.326c0-0.099,0.163-0.131,0.293-0.131h4.728c0.13,0,0.261,0.032,0.261,0.131
		c0,0.13-0.098,0.261-0.195,0.358l-1.109,1.108c-0.163,0.163-0.293,0.489-0.359,0.75l-2.837,9.489l2.674,9.913
		c0.098,0.358,0.294,0.685,0.457,0.88l1.109,1.207c0.163,0.163,0.326,0.358,0.326,0.488c0,0.099-0.13,0.131-0.261,0.131h-5.217
		c-0.131,0-0.229-0.065-0.229-0.163c0-0.131,0.13-0.293,0.293-0.456l1.011-1.076c0.13-0.163,0.163-0.424,0.098-0.652l-1.565-5.837
		h-0.065l-1.565,5.739c-0.098,0.326-0.065,0.587,0.098,0.75l1.076,1.076c0.163,0.163,0.293,0.325,0.293,0.456
		c0,0.098-0.098,0.163-0.228,0.163h-4.859c-0.163,0-0.261-0.032-0.261-0.131c0-0.13,0.13-0.325,0.293-0.521l1.076-1.108
		c0.196-0.229,0.424-0.587,0.521-0.945l2.642-9.098L114.616,218.447z"/>
	<path d="M126.288,218.447c0-0.392-0.065-0.685-0.293-0.913l-0.978-0.945c-0.065-0.098-0.229-0.195-0.229-0.294
		c0-0.098,0.065-0.195,0.196-0.195h4.304c3.293,0,5.25,3.163,5.25,11.608c0,10.63-1.957,12.848-5.25,12.848h-4.304
		c-0.13,0-0.196-0.098-0.196-0.195c0-0.099,0.163-0.163,0.229-0.294l0.978-0.945c0.229-0.229,0.293-0.521,0.293-0.913V218.447z
		 M128.799,238.924h0.587c1.271,0,2.478-1.238,2.478-11.217c0-8.739-1.207-9.978-2.478-9.978h-0.587V238.924z"/>
	<path d="M142.33,230.153c0-0.326-0.13-0.521-0.359-0.717l-0.913-0.783c-0.13-0.13-0.163-0.195-0.163-0.325
		c0-0.131,0.098-0.196,0.261-0.196h4.826c0.13,0,0.229,0.065,0.229,0.196c0,0.13-0.065,0.195-0.163,0.325l-0.946,0.783
		c-0.228,0.163-0.326,0.391-0.326,0.717v10.239c0,0.098-0.065,0.163-0.163,0.163c-0.131,0-0.261-0.065-0.326-0.131l-0.979-0.88
		c-0.13-0.098-0.195-0.131-0.326-0.131c-0.098,0-0.195,0.033-0.326,0.131c-0.685,0.619-1.337,1.011-2.055,1.011
		c-4.076,0-4.239-7.435-4.239-12.88c0-4.011,0.163-11.576,4.174-11.576c1.076,0,1.728,0.489,2.054,0.75
		c0.13,0.098,0.359,0.195,0.489,0.195c0.163,0,0.489-0.228,0.815-0.521c0.293-0.261,0.489-0.424,0.652-0.424
		s0.228,0.229,0.228,0.555v7.825c0,0.131-0.065,0.229-0.163,0.229c-0.131,0-0.229-0.13-0.293-0.326
		c-0.685-2.445-2.087-6.651-3.522-6.651c-1.37,0-1.761,3.098-1.761,9.978c0,9.392,0.391,11.217,1.565,11.217
		c1.011,0,1.729-1.238,1.729-4.336V230.153z"/>
</g>
<polygon fill="#AD2545" points="127.416,119.333 129.729,119.216 131.104,120.637 132.416,122.297 132.416,146.083 130.916,148.083 
	130.916,123.833 130.242,122.838 129.666,123.583 129.666,151.583 126.666,151.583 124.416,147.333 126.666,144.083 
	124.758,141.413 126.916,138.333 124.666,135.583 126.666,132.083 124.666,129.083 126.166,125.833 123.729,122.888 "/>
<polygon fill="#AD2545" points="133.926,122.558 133.558,122.724 133.558,144.518 135.058,142.518 135.059,123.508 134.804,122.938 
	"/>
</svg>
