<?xml version="1.0" standalone="no"?>
<!DOCTYPE svg PUBLIC "-//W3C//DTD SVG 1.0//EN" "http://www.w3.org/TR/2001/REC-SVG-20010904/DTD/svg10.dtd">
<svg xmlns="http://www.w3.org/2000/svg" xmlns:xlink="http://www.w3.org/1999/xlink" id="body_1" width="190" height="58">

<g transform="matrix(1 0 0 1 12.5 -0)">
	<g transform="matrix(1 0 0 1 1.519213 -83.07265)">
		<text x="-8.945054" y="121.24396" style="fill:#FF0000;font-family:Times New Roman;font-weight:bold;" font-size="46.8966">

		</text>
	</g>
	<g transform="matrix(1 0 0 1 1.519213 -83.07265)">
		<text x="-8.945054" y="121.24396" style="fill:#FF0000;font-family:Times New Roman;font-weight:bold;" font-size="46.8966">
M
		</text>
	</g>
	<g transform="matrix(0.8069915 0 0 1.2391704 1.519213 -83.07265)">
		<text x="43.963066" y="98.31674" style="fill:#0000FF;font-family:Times New Roman;font-weight:bold;" font-size="52.0371">

		</text>
	</g>
	<g transform="matrix(0.8069915 0 0 1.2391704 1.519213 -83.07265)">
		<text x="43.963066" y="98.31674" style="fill:#0000FF;font-family:Times New Roman;font-weight:bold;" font-size="52.0371">
o
		</text>
	</g>
	<g transform="matrix(0.85917014 0 0 1.1639138 1.519213 -83.07265)">
		<text x="77.033455" y="104.52784" style="fill:#FF0000;font-family:Times New Roman;font-weight:bold;" font-size="53.6879">

		</text>
	</g>
	<g transform="matrix(0.85917014 0 0 1.1639138 1.519213 -83.07265)">
		<text x="77.033455" y="104.52784" style="fill:#FF0000;font-family:Times New Roman;font-weight:bold;" font-size="53.6879">
g
		</text>
	</g>
	<g transform="matrix(1 0 0 1 1.519213 -83.07265)">
		<text x="96.17284" y="120.06944" style="fill:#FF00FF;font-family:Times New Roman;font-weight:bold;" font-size="58.6207">

		</text>
	</g>
	<g transform="matrix(1 0 0 1 1.519213 -83.07265)">
		<text x="96.17284" y="120.06944" style="fill:#FF00FF;font-family:Times New Roman;font-weight:bold;" font-size="58.6207">
u
		</text>
	</g>
	<g transform="matrix(1 0 0 1 1.519213 -83.07265)">
		<text x="135.51865" y="121.83121" style="fill:#008000;font-family:Times New Roman;font-weight:bold;" font-size="64.4828">

		</text>
	</g>
	<g transform="matrix(1 0 0 1 1.519213 -83.07265)">
		<text x="135.51865" y="121.83121" style="fill:#008000;font-family:Times New Roman;font-weight:bold;" font-size="64.4828">
a
		</text>
	</g>
</g>
</svg>